<svg version="1.1" id="Layer_1" xmlns="http://www.w3.org/2000/svg" x="0" y="0" viewBox="0 0 94.26 96.35" xml:space="preserve"><style>.st0{fill:#002ed8}</style><path class="st0" d="M8.29 84.4L6.2 89.5h4.18l-2.09-5.1zm4.77 11.68l-1.44-3.53H4.97l-1.44 3.53H0l6.74-15.84h3.19l6.74 15.84h-3.61zM27.78 85.72c0-1.48-1.03-2.25-2.72-2.25h-3.44v4.52h3.51c1.69 0 2.65-.9 2.65-2.22v-.05zm-.07 10.36l-3.37-5.03h-2.72v5.03h-3.46V80.35h7.19c3.71 0 5.93 1.95 5.93 5.19v.05c0 2.54-1.37 4.13-3.37 4.87l3.84 5.62h-4.04zM40.79 83.54v12.54h-3.46V83.54h-4.79v-3.19h13.04v3.19zM54.05 96.33c-4.22 0-6.81-2.36-6.81-6.99v-8.99h3.46v8.9c0 2.56 1.28 3.89 3.39 3.89 2.11 0 3.39-1.28 3.39-3.77v-9.01h3.46v8.88c.01 4.75-2.66 7.09-6.89 7.09M72.79 85.72c0-1.48-1.03-2.25-2.72-2.25h-3.44v4.52h3.51c1.69 0 2.65-.9 2.65-2.22v-.05zm-.06 10.36l-3.37-5.03h-2.72v5.03h-3.46V80.35h7.19c3.71 0 5.93 1.95 5.93 5.19v.05c0 2.54-1.37 4.13-3.37 4.87l3.84 5.62h-4.04zM90.64 88.22c0-2.7-1.98-4.94-4.76-4.94-2.79 0-4.72 2.2-4.72 4.9v.04c0 2.7 1.98 4.94 4.77 4.94 2.79 0 4.72-2.2 4.72-4.9v-.04zm-4.77 8.13c-4.85 0-8.34-3.62-8.34-8.09v-.05c0-4.47 3.53-8.13 8.38-8.13 4.85 0 8.34 3.62 8.34 8.09v.04c.01 4.48-3.52 8.14-8.38 8.14M56.89 17.33L47.09.35 28.85 31.94l-3.73 6.45h15.34c2.64 0 5.08-1.41 6.41-3.7l10.02-17.36zM64.14 63.81h19.61L65.51 32.23l-3.73-6.45-7.67 13.28a7.39 7.39 0 0 0 0 7.39l10.03 17.36zM20.32 46.9l-9.81 16.98h43.92L46.77 50.6a7.388 7.388 0 0 0-6.4-3.7H20.32z"/></svg>