<svg xmlns="http://www.w3.org/2000/svg" width="1052.68" height="210.34" viewBox="0 0 1052.68 210.34"><g data-name="Layer 2"><g fill="#fff" data-name="Layer 1"><path d="M407.94 208.2l-11.42-28H343.7l-11.42 28h-28L357.8 82.42h25.34l53.53 125.78zm-37.83-92.77l-16.59 40.49h33.18z"/><path d="M524.29 208.2l-26.76-40h-21.6v40h-27.48V83.31h57.1c29.45 0 47.11 15.52 47.11 41.22v.35c0 20.16-10.88 32.83-26.76 38.72l30.51 44.6zm.54-82.25c0-11.77-8.21-17.84-21.59-17.84h-27.31V144h27.84c13.38 0 21.06-7.13 21.06-17.66z"/><path d="M628.15 108.65v99.55h-27.48v-99.55h-38V83.31h103.5v25.34z"/><path d="M733.44 210.16c-33.55 0-54.07-18.73-54.07-55.48V83.31h27.48V154c0 20.34 10.17 30.87 26.94 30.87s27-10.17 27-30V83.31h27.48v70.47c-.05 37.83-21.27 56.38-54.83 56.38z"/><path d="M881.73 208.2l-26.77-40h-21.59v40h-27.48V83.31H863c29.45 0 47.11 15.52 47.11 41.22v.35c0 20.16-10.88 32.83-26.76 38.72l30.51 44.6zm.54-82.25c0-11.77-8.21-17.84-21.6-17.84h-27.3V144h27.84c13.38 0 21.06-7.13 21.06-17.66z"/><path d="M986.13 210.34c-38.55 0-66.2-28.72-66.2-64.23v-.35c0-35.51 28-64.59 66.55-64.59s66.2 28.73 66.2 64.23v.36c0 35.5-28.01 64.58-66.55 64.58zm37.87-64.58c0-21.41-15.71-39.25-37.83-39.25S948.65 124 948.65 145.4v.36c0 21.4 15.71 39.25 37.83 39.25s37.48-17.49 37.48-38.9z"/><g><path d="M152 55.65L119.86 0 60.09 103.52l-12.21 21.15h50.27a24.24 24.24 0 0 0 21-12.12z"/><path d="M175.74 208H240l-59.76-103.53L168 83.32l-25.14 43.54a24.24 24.24 0 0 0 0 24.24z"/><path d="M32.13 152.54L0 208.2h144l-25.13-43.54a24.24 24.24 0 0 0-21-12.12z"/></g></g></g></svg>