<svg version="1.1" id="Layer_1" xmlns="http://www.w3.org/2000/svg" x="0" y="0" viewBox="0 0 23.4 24" xml:space="preserve"><style>.st0{fill:#001042}</style><path class="st0" d="M16.58 24H6.81c-3.74 0-6.8-3.06-6.8-6.8V6.8C.01 3.06 3.07 0 6.81 0h9.77c3.74 0 6.8 3.06 6.8 6.8v10.4c0 3.74-3.06 6.8-6.8 6.8zm0-1.8c1.33 0 2.58-.52 3.53-1.47s1.47-2.2 1.47-3.53V6.8c0-1.33-.52-2.58-1.47-3.53s-2.2-1.47-3.53-1.47H6.81c-1.33 0-2.58.52-3.53 1.47S1.81 5.47 1.81 6.8v10.4c0 1.33.52 2.58 1.47 3.53s2.2 1.47 3.53 1.47h9.77z"/><path class="st0" d="M18.17 11.91c0 3.55-2.88 6.43-6.43 6.43S5.3 15.46 5.3 11.91s2.88-6.43 6.43-6.43 6.44 2.87 6.44 6.43zM11.7 7.7c-2.33 0-4.21 1.89-4.21 4.21s1.89 4.21 4.21 4.21 4.21-1.89 4.21-4.21S14.03 7.7 11.7 7.7z"/><circle class="st0" cx="18.27" cy="5.37" r="1.52"/></svg>