<svg version="1.1" id="Layer_1" xmlns="http://www.w3.org/2000/svg" x="0" y="0" viewBox="0 0 34.18 24" xml:space="preserve"><style>.st0{fill:#ffc338}</style><path class="st0" d="M8.15 20.5c-2.57 0-4.65-2.08-4.65-4.65 0-2.57 2.08-4.65 4.65-4.65a4.66 4.66 0 0 1 4.28 2.83h3.66A8.132 8.132 0 0 0 8.15 7.7C3.65 7.7 0 11.35 0 15.85S3.65 24 8.15 24c3.84 0 7.06-2.66 7.92-6.24h-3.68a4.64 4.64 0 0 1-4.24 2.74zM18.04 23.46h3.4v-.87c1.31.89 2.89 1.42 4.59 1.42 4.5 0 8.15-3.65 8.15-8.15S30.53 7.7 26.03 7.7c-1.7 0-3.28.52-4.59 1.42V0h-3.4v23.46zm7.99-2.96c-2.57 0-4.65-2.08-4.65-4.65 0-2.57 2.08-4.65 4.65-4.65 2.57 0 4.65 2.08 4.65 4.65 0 2.57-2.08 4.65-4.65 4.65z"/></svg>