<svg xmlns="http://www.w3.org/2000/svg" viewBox="0 0 217 64"><path d="M212.36 59.98h.71c.6 0 1.16-.03 1.16-.73 0-.59-.5-.68-.97-.68h-.91v1.41zm-.69-1.96h1.71c1.05 0 1.54.41 1.54 1.26 0 .8-.5 1.13-1.16 1.2l1.26 1.95h-.74l-1.2-1.89h-.73v1.89h-.69v-4.41zm1.47 5.42c1.75 0 3.09-1.39 3.09-3.24 0-1.81-1.35-3.2-3.09-3.2-1.76 0-3.12 1.39-3.12 3.2 0 1.85 1.36 3.24 3.12 3.24m0-6.98c2.06 0 3.78 1.63 3.78 3.75a3.76 3.76 0 0 1-3.78 3.79c-2.07 0-3.8-1.62-3.8-3.79 0-2.13 1.73-3.75 3.8-3.75m-3-41.68h-87.95L63.07 0 .08 17.13l1.6 5.98L63.07 6.42l58.3 14.57h88.77zM51.26 30.98h-5.68v2.55h4.52v3.26h-4.52v2.99h5.66v3.26h-9.76V27.72h9.78zm18.52-3.26h4.1v15.32h-4.1zm106.36 0h4.1v15.32h-4.1zM133.5 43.04h-4.1V27.72h9.79v3.26h-5.69v2.55h4.52v3.26h-4.52zm50.84 0h9.76v-3.89h-5.66V27.72h-4.1zm-69.89-15.32v8.32l-4.11-8.32h-4.61v15.32h4v-8.32l4.11 8.32h4.61V27.72zm-101.2 9.02l-1.15-3.41-1.15 3.41h2.3zm1.04-9.02l5.17 15.32h-4.2L14.23 40H9.97l-1.03 3.04H5.05l5.17-15.32h4.07zm83.34 9.02l-1.15-3.41-1.15 3.41h2.3zm1.04-9.02l5.17 15.32h-4.21L98.61 40h-4.26l-1.03 3.04h-3.89l5.17-15.32h4.07zm49.04 9.02l-1.15-3.41-1.15 3.41h2.3zm1.04-9.02l5.17 15.32h-4.2L148.69 40h-4.26l-1.03 3.04h-3.89l5.17-15.32h4.07zm-89.91 6.5v-3.08h1.67c.39 0 .81 0 1.16.21.41.26.64.78.64 1.32 0 1.39-1.06 1.55-1.95 1.55h-1.52zm1.88 3.79l1.89 5.03h3.95l-2.34-6.24c1.57-.87 2.34-2.14 2.34-4.25 0-1.57-.52-3-1.63-3.85-.99-.8-2.27-.99-3.43-.99h-6.76v15.32h4.1V38h1.88zm141.9-10.29l-2.96 5.62-2.95-5.62h-4.03l4.93 9.37v5.95h4.1v-5.95l4.93-9.37zM33.94 43.04v-6.92l-2.71 6.92h-2.96l-2.71-6.92v6.92h-3.98V27.72h4.57l3.6 9.19 3.6-9.19h4.56v15.32zm134.12 0v-6.92l-2.71 6.92h-2.96l-2.71-6.92v6.92h-3.98V27.72h4.57l3.6 9.19 3.6-9.19h4.56v15.32zm-81.63-11c-.6-.6-1.36-.97-2.18-.97-1.89 0-3.49 1.97-3.49 4.31 0 2.33 1.6 4.3 3.49 4.3.82 0 1.58-.37 2.18-.97l2.14 2.61c-1.25 1.32-2.91 2.14-4.75 2.14-3.88 0-7.02-3.62-7.02-8.08s3.14-8.08 7.02-8.08c1.83 0 3.49.81 4.75 2.14l-2.14 2.6zm-23.86 24.4c.56.09.75.37.75.65 0 .46-.35.79-1.64.79-.64 0-1.09-.07-1.4-.2-.29-.15-.42-.37-.44-.69h-4.96c.02 2.85 3.47 3.26 6.64 3.26 4.62 0 6.7-1.11 6.7-3.47 0-1.64-1.28-2.54-3.36-2.82l-4.92-.68c-.41-.05-.54-.23-.54-.5 0-.41.42-.69 1.65-.69.45 0 .92.06 1.28.21.38.14.63.38.63.77h4.79c-.15-2.05-2.06-3.17-6.7-3.17-3.39 0-6.03.68-6.03 3.19 0 1.36.83 2.44 2.85 2.73l4.7.62zm12.67-.22c0 3.08 2.42 4.02 6.65 4.02s6.65-.93 6.65-4.02v-6.01h-4.11v5.87c0 1.25-1.19 1.64-2.53 1.64-1.34 0-2.54-.39-2.54-1.64v-5.87h-4.11v6.01zm61.66 3.68h3.94v-4.8h.03l4.38 4.8h4.51v-9.69h-3.94v4.75h-.04l-4.17-4.75h-4.7v9.69zm-102.4 0h3.94v-4.8h.03l4.38 4.8h4.51v-9.69h-3.94v4.75h-.04l-4.17-4.75h-4.7v9.69zm143.9 0h11.62v-2.36h-7.5v-1.3h7.01v-2.36h-7.01v-1.3h7.5v-2.36H178.4v9.68zm-12.14-3.77c-.34 1.17-1.11 1.67-2.41 1.67-1.5 0-2.54-.77-2.54-2.74 0-1.97 1.07-2.74 2.75-2.74 1.59 0 2.08 1.01 2.2 1.7h4.64c-.54-3.84-4.36-4.14-6.84-4.14-2.5 0-7.12.16-7.12 5.19 0 5.02 4.62 5.18 7.12 5.18 2.51 0 4.09-.39 5.09-1.1 1.02-.71 1.49-1.74 1.75-3.01h-4.64zm-50.39 3.77h4.38l.44-1.11h4.29l.44 1.11h4.38l-4.44-9.69h-5.05l-4.44 9.69zm6.97-6.76h-.03l-1.23 3.28h2.48l-1.22-3.28zM21.58 59.9h4.1v-9.69h-4.1v9.69zm81.29-5.57c.91 0 1.99-.1 1.99-.98 0-.34-.24-.67-.65-.83-.36-.13-.79-.13-1.18-.13h-2.55v1.94h2.39zm.32 2.39l1.92 3.18h4.04l-2.38-3.94c1.59-.55 2.38-1.35 2.38-2.69 0-.99-.53-1.9-1.65-2.43-1-.5-2.3-.63-3.48-.63h-7.65v9.69h4.1v-3.18h2.72zM5.05 46.11h201.5V64H5.05V46.11z"/></svg>