<svg width="187" height="23" viewBox="0 0 187 23" fill="none" xmlns="http://www.w3.org/2000/svg">
<g clip-path="url(#clip0)">
<path d="M6.14403 17.0227H0V0.614746H6.14403C11.5608 0.614746 14.5606 2.95839 14.5606 8.82117C14.5606 14.6839 11.5608 17.0227 6.14403 17.0227ZM5.74488 3.9845H4.03072V13.6456H5.74488C8.81567 13.6456 10.5519 12.6146 10.5519 8.81627C10.5519 5.01795 8.81567 3.9845 5.74488 3.9845Z" fill="#58595B"/>
<path d="M16.7644 17.0226H20.6359V4.71177H16.7644V17.0226ZM16.6958 3.142H20.7265V0H16.6958V3.142Z" fill="#58595B"/>
<path d="M35.4291 4.71173V16.8585C35.4291 20.3752 33.6463 22.0405 29.8948 22.0405C27.6412 21.9915 25.4034 21.6524 23.2365 21.0315C23.4961 20.0225 23.7262 19.0381 23.9858 18.0781C25.5114 18.5458 27.8329 19.0577 29.0769 19.0577C30.9747 19.0577 31.5844 18.4479 31.5844 17.0422V15.7565C30.4645 16.7431 29.0217 17.285 27.5292 17.2797C24.6445 17.2797 22.6978 15.1002 22.6978 10.8782C22.6978 6.61211 24.6568 4.45459 27.5292 4.45459C29.3095 4.45459 30.5535 5.15744 31.5844 6.00232V4.71173H35.4291ZM31.5893 12.7541V9.00473C30.698 7.99332 29.7136 7.55006 28.7512 7.55006C27.3211 7.55006 26.5938 8.69861 26.5938 10.8561C26.5938 13.0137 27.3284 14.1867 28.7512 14.1867C29.7136 14.1867 30.7102 13.7385 31.5893 12.7541Z" fill="#58595B"/>
<path d="M37.447 17.0226H41.3161V4.71177H37.447V17.0226ZM37.3784 3.142H41.4091V0H37.3784V3.142Z" fill="#58595B"/>
<path d="M43.0991 4.7119H44.7863V1.61643L48.6089 1.14868V4.7119H51.9613V7.52574H48.6089V12.8008C48.6089 13.8342 49.1721 13.9273 49.6399 13.9273C50.2031 13.9273 51.141 13.5281 51.4471 13.413L52.7817 16.2489C51.9393 16.6236 50.3451 17.2799 48.6187 17.2799C46.0401 17.2799 44.7961 15.8277 44.7961 12.7787V7.52574H43.0991V4.7119Z" fill="#58595B"/>
<path d="M61.9277 15.6389C60.7695 16.6997 59.2544 17.2855 57.6839 17.2797C55.1519 17.2797 53.3691 15.6389 53.3691 13.2242C53.3691 10.692 55.2915 9.26183 57.9655 9.26183C59.3712 9.26183 61.1049 9.66101 61.9277 9.82264V9.06102C61.9277 7.8194 61.411 7.3737 59.8634 7.3737C58.6683 7.3737 57.3558 7.65533 55.3869 8.24307L54.214 5.61535C56.6995 4.817 58.7859 4.4668 60.5809 4.4668C64.2149 4.4668 65.7625 5.77943 65.7625 9.27408V17.0225H61.9179L61.9277 15.6389ZM61.9277 13.1532V11.6838C61.0525 11.4744 60.1598 11.3465 59.261 11.3018C57.9484 11.3018 57.3019 11.8626 57.3019 12.8716C57.3019 13.8805 57.9827 14.3263 58.9671 14.3263C60.0672 14.2997 61.1222 13.8841 61.9448 13.1532" fill="#58595B"/>
<path d="M80.5653 0.47998H76.5566V16.8928H80.5653V0.47998Z" fill="#1D8C44"/>
<path d="M71.6078 0.47998H67.5991V16.8928H71.6078V0.47998Z" fill="#58595B"/>
<path d="M86.6166 5.96575C87.7406 5.21637 89.3593 4.32495 91.2816 4.32495C93.9557 4.32495 95.0331 5.8482 95.0331 8.24326V16.8978H91.1885V9.13223C91.1885 8.07674 90.9069 7.30287 89.7339 7.30287C88.6099 7.30287 87.3194 8.05225 86.6166 8.73305V16.8978H82.7695V4.58209H86.6142L86.6166 5.96575Z" fill="#1D8C44"/>
<path d="M108.447 13.3762C108.447 15.6734 106.572 17.1501 103.305 17.1501C101.03 17.11 98.7936 16.5575 96.7617 15.5338L98.231 12.8399C99.5215 13.4497 101.818 14.2211 103.156 14.2211C103.905 14.2211 104.539 13.9762 104.539 13.5207C104.539 12.6979 102.617 12.4187 101.255 12.0661C99.2399 11.5493 97.0115 10.5649 97.0115 8.07918C97.0115 5.92166 98.7256 4.32739 101.96 4.32739C104.164 4.32739 106.532 5.07677 107.869 5.68901L106.4 8.19673C105.252 7.75102 103.4 7.23674 102.237 7.23674C101.392 7.23674 100.9 7.49388 100.9 7.93959C100.9 8.7355 102.519 8.94611 104.066 9.32324C106.153 9.83752 108.452 10.822 108.452 13.3787" fill="#1D8C44"/>
<path d="M118.576 15.5092C117.427 16.2831 115.787 17.1427 113.869 17.1427C111.244 17.1427 110.142 15.6415 110.142 13.2489V4.58203H114.011V12.3452C114.011 13.4007 114.293 14.1746 115.441 14.1746C116.519 14.1746 117.809 13.4399 118.583 12.7419V4.58203H122.428V16.8978H118.583L118.576 15.5092Z" fill="#1D8C44"/>
<path d="M128.895 7.1387C129.174 6.43585 130.364 4.2318 133.491 4.44486V8.05216C129.328 8.05216 128.895 12.0146 128.895 12.0146V16.8978H125.05V4.582H128.895V7.1387Z" fill="#1D8C44"/>
<path d="M142.682 15.5093C141.523 16.5684 140.008 17.1517 138.438 17.1427C135.906 17.1427 134.123 15.5019 134.123 13.0873C134.123 10.5551 136.048 9.12489 138.719 9.12489C140.127 9.12489 141.861 9.52407 142.682 9.6857V8.92162C142.682 7.67756 142.165 7.23185 140.617 7.23185C139.422 7.23185 138.11 7.51348 136.141 8.10123L134.968 5.47351C137.453 4.6776 139.54 4.32495 141.335 4.32495C144.969 4.32495 146.516 5.63759 146.516 9.13223V16.8978H142.672L142.682 15.5093ZM142.682 13.0236V11.5542C141.804 11.3482 140.91 11.2228 140.01 11.1796C138.695 11.1796 138.051 11.7428 138.051 12.7493C138.051 13.7558 138.719 14.204 139.704 14.204C140.804 14.1787 141.86 13.7629 142.682 13.031" fill="#1D8C44"/>
<path d="M152.296 5.96575C153.422 5.21637 155.038 4.32495 156.961 4.32495C159.635 4.32495 160.712 5.8482 160.712 8.24326V16.8978H156.868V9.13223C156.868 8.07674 156.586 7.30287 155.413 7.30287C154.289 7.30287 153.001 8.05225 152.296 8.73305V16.8978H148.451V4.58209H152.296V5.96575Z" fill="#1D8C44"/>
<path d="M172.32 8.63999C171.453 8.24082 170.094 7.60899 168.989 7.60899C167.469 7.60899 166.599 8.8506 166.599 10.7265C166.599 12.6024 167.469 13.8685 168.989 13.8685C170.094 13.8685 171.453 13.2367 172.32 12.8595L173.845 15.6979C172.697 16.2121 170.515 17.1525 168.382 17.1525C165.404 17.1427 162.684 15.1836 162.684 10.7265C162.684 6.26941 165.404 4.32495 168.357 4.32495C170.515 4.32495 172.697 5.2629 173.845 5.77963L172.32 8.63999Z" fill="#1D8C44"/>
<path d="M178.628 11.5469C178.816 13.3762 179.607 14.3142 181.091 14.3142C182.379 14.3142 184.069 13.6579 185.592 12.8619L187 15.2521C186.062 15.7688 183.572 17.15 180.692 17.15C177.362 17.15 174.69 15.1909 174.69 10.7828C174.69 6.72734 177.033 4.33472 180.974 4.33472C184.958 4.33472 186.929 6.65632 186.929 9.79831C186.934 10.391 186.863 10.9819 186.718 11.5567L178.628 11.5469ZM178.652 9.53138H183.17C183.148 7.91263 182.418 7.0457 180.988 7.0457C179.605 7.0457 178.855 7.93467 178.645 9.53138" fill="#1D8C44"/>
</g>
<defs>
<clipPath id="clip0">
<rect width="187" height="22.0405" fill="white"/>
</clipPath>
</defs>
</svg>
