<svg xmlns="http://www.w3.org/2000/svg" viewBox="0 0 224 212.41"><defs><style>.cls-1{fill:#8ff4cc;}</style></defs><title>icon_models</title><g id="Layer_2" data-name="Layer 2"><g id="Layer_1-2" data-name="Layer 1"><path class="cls-1" d="M24,8V24H8V8H24m.42-8H7.58A7.58,7.58,0,0,0,0,7.58V24.42A7.58,7.58,0,0,0,7.58,32H24.42A7.58,7.58,0,0,0,32,24.42V7.58A7.58,7.58,0,0,0,24.42,0Z"/><path class="cls-1" d="M88,8V24H72V8H88m.42-8H71.58A7.58,7.58,0,0,0,64,7.58V24.42A7.58,7.58,0,0,0,71.58,32H88.42A7.58,7.58,0,0,0,96,24.42V7.58A7.58,7.58,0,0,0,88.42,0Z"/><path class="cls-1" d="M152,8V24H136V8h16m.42-8H135.58A7.58,7.58,0,0,0,128,7.58V24.42A7.58,7.58,0,0,0,135.58,32h16.84A7.58,7.58,0,0,0,160,24.42V7.58A7.58,7.58,0,0,0,152.42,0Z"/><path class="cls-1" d="M216,8V24H200V8h16m.42-8H199.58A7.58,7.58,0,0,0,192,7.58V24.42A7.58,7.58,0,0,0,199.58,32h16.84A7.58,7.58,0,0,0,224,24.42V7.58A7.58,7.58,0,0,0,216.42,0Z"/><polygon class="cls-1" points="212 60 12 60 12 32 20 32 20 52 204 52 204 32 212 32 212 60"/><rect class="cls-1" x="76" y="32" width="8" height="24"/><rect class="cls-1" x="108" y="56" width="8" height="44.41"/><rect class="cls-1" x="140" y="32" width="8" height="24"/><circle class="cls-1" cx="150.21" cy="190.41" r="8"/><circle class="cls-1" cx="175.79" cy="120.41" r="8"/><circle class="cls-1" cx="86.21" cy="108.45" r="8"/><circle class="cls-1" cx="48.21" cy="144.49" r="8"/><circle class="cls-1" cx="83.21" cy="157.27" r="8"/><circle class="cls-1" cx="112.21" cy="136.59" r="8"/><circle class="cls-1" cx="130.43" cy="165.27" r="8"/><circle class="cls-1" cx="76.21" cy="204.41" r="8"/><path class="cls-1" d="M76.21,208.41a4,4,0,0,1-3.63-2.31l-28-59.92a4,4,0,0,1,5-5.45l35,12.78a4,4,0,0,1,2.58,4.35l-7,47.14a4,4,0,0,1-3.38,3.37A3.86,3.86,0,0,1,76.21,208.41ZM55.93,151.57l18.28,39.11,4.57-30.77Z"/><path class="cls-1" d="M83.21,161.27a4.08,4.08,0,0,1-1.37-.24l-35-12.78a4,4,0,0,1-.59-7.25c3-2.3,24.22-22.8,37.17-35.42a4,4,0,0,1,2.89-1.13,4,4,0,0,1,2.84,1.28l26,28.15a4,4,0,0,1-.62,6l-29,20.68A4,4,0,0,1,83.21,161.27ZM56,143.06l26.66,9.73L106.19,136,86.05,114.18c-3.47,3.38-9.56,9.27-15.65,15.13C63.5,135.94,59,140.25,56,143.06Z"/><path class="cls-1" d="M112.21,140.59a4,4,0,0,1-2.94-1.28l-26-28.15a4,4,0,0,1,3.47-6.68l89.58,12a4,4,0,0,1,.46,7.84L113.2,140.47A4.19,4.19,0,0,1,112.21,140.59ZM96.67,113.88l16.86,18.25,41.23-10.49Z"/><path class="cls-1" d="M130.43,169.27l-.44,0a4,4,0,0,1-2.93-1.83l-18.23-28.68a4,4,0,0,1-.34-3.62,4,4,0,0,1,2.73-2.4l63.58-16.19a4,4,0,0,1,3.8,6.72l-45.35,44.87A4,4,0,0,1,130.43,169.27Zm-11.88-30.16,12.6,19.83,31.36-31Z"/><path class="cls-1" d="M150.21,194.41a4,4,0,0,1-3.14-1.53l-19.78-25.14a4,4,0,0,1,.33-5.31L173,117.57a4,4,0,0,1,6.57,4.21l-25.58,70a4,4,0,0,1-3.13,2.58A3.35,3.35,0,0,1,150.21,194.41Zm-14.42-28.8,13.13,16.69,17-46.48Z"/><path class="cls-1" d="M76.21,208.41a4,4,0,0,1-2.34-7.24L128.09,162a4,4,0,0,1,5.49.77l19.77,25.14a4,4,0,0,1-2.4,6.4l-74,14A3.78,3.78,0,0,1,76.21,208.41Zm53.45-37.65L93.12,197.14,143,187.71Z"/><path class="cls-1" d="M76.21,208.41a4,4,0,0,1-2.08-.58,4,4,0,0,1-1.88-4l7-47.14a4,4,0,0,1,4.62-3.35l47.22,8a4,4,0,0,1,1.68,7.18L78.55,207.65A4,4,0,0,1,76.21,208.41ZM86.57,161.9l-5,33.72,38.79-28Z"/></g></g></svg>