<svg xmlns="http://www.w3.org/2000/svg" viewBox="0 0 236 236"><defs><style>.cls-1{fill:none;}.cls-2{fill:#8ff4cc;}</style></defs><title>icon_proprietarty</title><g id="Layer_2" data-name="Layer 2"><g id="Layer_1-2" data-name="Layer 1"><path class="cls-1" d="M76.92,157.51c-20.9-2.64-39-7.22-52.4-13.1A83.45,83.45,0,0,1,15.79,140,51.2,51.2,0,0,1,8,134.5V160c0,5,7.63,13.42,29.13,20.71a196.73,196.73,0,0,0,30.92,7.45c0-.72,0-1.44,0-2.16A49.73,49.73,0,0,1,76.92,157.51Z"/><path class="cls-1" d="M211.49,144.4c-13.39,5.89-31.5,10.47-52.41,13.11A49.73,49.73,0,0,1,168,186c0,.72,0,1.44-.05,2.16a196.73,196.73,0,0,0,30.92-7.45c9.81-3.33,17.71-7.26,22.85-11.38,2.87-2.3,6.28-5.78,6.28-9.33V145.5a51.2,51.2,0,0,0-7.79-5.5A82.32,82.32,0,0,1,211.49,144.4Z"/><path class="cls-1" d="M211.49,64.4C189.91,73.89,156.06,80,118,80S46.1,73.89,24.52,64.41A83.45,83.45,0,0,1,15.79,60,51.2,51.2,0,0,0,8,65.5V80c0,3.86,4.55,9.75,16.51,15.6A103.93,103.93,0,0,0,35.1,100l2,.71C58.61,108,87.33,112,118,112s59.39-4,80.87-11.29l2-.71a102.68,102.68,0,0,0,10.58-4.41,55.29,55.29,0,0,0,10.24-6.26C224.59,87,228,83.55,228,80V65.5a51.2,51.2,0,0,0-7.79-5.5A82.32,82.32,0,0,1,211.49,64.4Z"/><path class="cls-1" d="M211.49,104.4C189.91,113.89,156.06,120,118,120s-71.9-6.11-93.48-15.59A83.45,83.45,0,0,1,15.79,100,51.2,51.2,0,0,0,8,105.5V120c0,3.86,4.55,9.75,16.51,15.6A103.93,103.93,0,0,0,35.1,140l2,.71c13,4.42,28.79,7.63,46,9.47a50,50,0,0,1,69.74,0c17.21-1.84,32.95-5.05,46-9.47l2-.71a102.68,102.68,0,0,0,10.58-4.41,55.29,55.29,0,0,0,10.24-6.26c2.87-2.3,6.28-5.78,6.28-9.33V105.5a51.2,51.2,0,0,0-7.79-5.5A82.32,82.32,0,0,1,211.49,104.4Z"/><path class="cls-1" d="M37.13,60.71C58.61,68,87.33,72,118,72s59.39-4,80.87-11.29l2-.71a102.68,102.68,0,0,0,10.58-4.41,55.29,55.29,0,0,0,10.24-6.26C224.59,47,228,43.55,228,40c0-5-7.63-13.42-29.13-20.71S148.67,8,118,8,58.61,12,37.13,19.29c-9.81,3.33-17.71,7.26-22.85,11.38C11.41,33,8,36.45,8,40c0,3.86,4.55,9.75,16.51,15.6A103.93,103.93,0,0,0,35.1,60Z"/><path class="cls-1" d="M228,65.5v-11a51.2,51.2,0,0,1-7.79,5.5A51.2,51.2,0,0,1,228,65.5Z"/><path class="cls-1" d="M228,105.5v-11a51.2,51.2,0,0,1-7.79,5.5A51.2,51.2,0,0,1,228,105.5Z"/><path class="cls-1" d="M8,94.5v11a51.2,51.2,0,0,1,7.79-5.5A51.2,51.2,0,0,1,8,94.5Z"/><path class="cls-1" d="M8,54.5v11A51.2,51.2,0,0,1,15.79,60,51.2,51.2,0,0,1,8,54.5Z"/><path class="cls-1" d="M228,145.5v-11a51.2,51.2,0,0,1-7.79,5.5A51.2,51.2,0,0,1,228,145.5Z"/><path class="cls-2" d="M221.72,169.33c-5.14,4.12-13,8-22.85,11.38A196.73,196.73,0,0,1,168,188.16a50.84,50.84,0,0,1-1,8.25C207.67,190.11,236,176.18,236,160h-8C228,163.55,224.59,167,221.72,169.33Z"/><path class="cls-2" d="M37.13,180.71C15.63,173.42,8,165,8,160H0c0,16.18,28.33,30.11,69.09,36.41a50.84,50.84,0,0,1-1-8.25A196.73,196.73,0,0,1,37.13,180.71Z"/><path class="cls-2" d="M221.72,129.33a55.29,55.29,0,0,1-10.24,6.26,83.45,83.45,0,0,1,8.73,4.41,51.2,51.2,0,0,0,7.79-5.5V120C228,123.55,224.59,127,221.72,129.33Z"/><path class="cls-2" d="M24.51,135.6C12.55,129.75,8,123.86,8,120v14.5a51.2,51.2,0,0,0,7.79,5.5A82.32,82.32,0,0,1,24.51,135.6Z"/><path class="cls-2" d="M211.49,144.4A103.93,103.93,0,0,0,200.9,140l-2,.71c-13.05,4.42-28.79,7.63-46,9.47a50,50,0,0,1,6.21,7.33C180,154.87,198.1,150.29,211.49,144.4Z"/><path class="cls-2" d="M76.92,157.51a50,50,0,0,1,6.21-7.33c-17.21-1.84-32.95-5.05-46-9.47l-2-.71a102.68,102.68,0,0,0-10.58,4.41C37.91,150.29,56,154.87,76.92,157.51Z"/><path class="cls-2" d="M220.21,140a83.45,83.45,0,0,0-8.73-4.41A102.68,102.68,0,0,1,200.9,140a103.93,103.93,0,0,1,10.59,4.4A82.32,82.32,0,0,0,220.21,140Z"/><path class="cls-2" d="M24.52,144.41A102.68,102.68,0,0,1,35.1,140a103.93,103.93,0,0,1-10.59-4.4,82.32,82.32,0,0,0-8.72,4.4A83.45,83.45,0,0,0,24.52,144.41Z"/><path class="cls-2" d="M24.51,95.6C12.55,89.75,8,83.86,8,80V94.5a51.2,51.2,0,0,0,7.79,5.5A82.32,82.32,0,0,1,24.51,95.6Z"/><path class="cls-2" d="M118,120c38.06,0,71.91-6.11,93.49-15.6A103.93,103.93,0,0,0,200.9,100l-2,.71C177.39,108,148.67,112,118,112s-59.39-4-80.87-11.29l-2-.71a102.68,102.68,0,0,0-10.58,4.41C46.1,113.89,79.94,120,118,120Z"/><path class="cls-2" d="M221.72,89.33a55.29,55.29,0,0,1-10.24,6.26,83.45,83.45,0,0,1,8.73,4.41A51.2,51.2,0,0,0,228,94.5V80C228,83.55,224.59,87,221.72,89.33Z"/><path class="cls-2" d="M220.21,100a83.45,83.45,0,0,0-8.73-4.41A102.68,102.68,0,0,1,200.9,100a103.93,103.93,0,0,1,10.59,4.4A82.32,82.32,0,0,0,220.21,100Z"/><path class="cls-2" d="M24.52,104.41A102.68,102.68,0,0,1,35.1,100a103.93,103.93,0,0,1-10.59-4.4,82.32,82.32,0,0,0-8.72,4.4A83.45,83.45,0,0,0,24.52,104.41Z"/><path class="cls-2" d="M198.87,60.71C177.39,68,148.67,72,118,72S58.61,68,37.13,60.71l-2-.71a102.68,102.68,0,0,0-10.58,4.41C46.1,73.89,79.94,80,118,80s71.91-6.11,93.49-15.6A103.93,103.93,0,0,0,200.9,60Z"/><path class="cls-2" d="M8,54.5A51.2,51.2,0,0,0,15.79,60a82.32,82.32,0,0,1,8.72-4.4C12.55,49.75,8,43.86,8,40c0-3.55,3.41-7,6.28-9.33,5.14-4.12,13-8,22.85-11.38C58.61,12,87.33,8,118,8s59.39,4,80.87,11.29S228,35,228,40c0,3.55-3.41,7-6.28,9.33a55.29,55.29,0,0,1-10.24,6.26A83.45,83.45,0,0,1,220.21,60,51.2,51.2,0,0,0,228,54.5V40.36h8c0-.12,0-.24,0-.36,0-22.09-52.83-40-118-40S0,17.91,0,40c0,.12,0,.24,0,.36H8Z"/><path class="cls-2" d="M211.49,64.4a82.32,82.32,0,0,0,8.72-4.4,83.45,83.45,0,0,0-8.73-4.41A102.68,102.68,0,0,1,200.9,60,103.93,103.93,0,0,1,211.49,64.4Z"/><path class="cls-2" d="M35.1,60a103.93,103.93,0,0,1-10.59-4.4A82.32,82.32,0,0,0,15.79,60a83.45,83.45,0,0,0,8.73,4.41A102.68,102.68,0,0,1,35.1,60Z"/><path class="cls-2" d="M8,105.5v-11C2.84,90,0,85.12,0,80v40C0,114.88,2.84,110,8,105.5Z"/><path class="cls-2" d="M8,65.5v-11C3,50.11.14,45.35,0,40.36H0V80C0,74.88,2.84,70,8,65.5Z"/><path class="cls-2" d="M8,145.5v-11C2.84,130,0,125.12,0,120v40C0,154.88,2.84,150,8,145.5Z"/><path class="cls-2" d="M8,145.5C2.84,150,0,154.88,0,160H8Z"/><path class="cls-2" d="M8,134.5v-29C2.84,110,0,114.88,0,120S2.84,130,8,134.5Z"/><path class="cls-2" d="M8,94.5v-29C2.84,70,0,74.88,0,80S2.84,90,8,94.5Z"/><path class="cls-2" d="M8,54.5V40.36H0C.14,45.35,3,50.11,8,54.5Z"/><path class="cls-2" d="M228,134.5v11c5.16,4.49,8,9.38,8,14.5V120C236,125.12,233.16,130,228,134.5Z"/><path class="cls-2" d="M228,94.5v11c5.16,4.49,8,9.38,8,14.5V80C236,85.12,233.16,90,228,94.5Z"/><path class="cls-2" d="M228,54.5v11c5.16,4.49,8,9.38,8,14.5V40.36h0C235.86,45.35,233,50.11,228,54.5Z"/><path class="cls-2" d="M228,145.5V160h8C236,154.88,233.16,150,228,145.5Z"/><path class="cls-2" d="M228,105.5v29c5.16-4.49,8-9.38,8-14.5S233.16,110,228,105.5Z"/><path class="cls-2" d="M228,65.5v29c5.16-4.49,8-9.38,8-14.5S233.16,70,228,65.5Z"/><path class="cls-2" d="M228,54.5c5-4.39,7.86-9.15,8-14.14h-8Z"/><path class="cls-2" d="M86.27,158.53q-4.76-.45-9.35-1A49.73,49.73,0,0,0,68,186c0,.72,0,1.44,0,2.16q4,.65,8.1,1.19c-.09-1.11-.15-2.22-.15-3.35A41.8,41.8,0,0,1,86.27,158.53Z"/><path class="cls-2" d="M159.08,157.51q-4.59.57-9.35,1A41.8,41.8,0,0,1,160,186c0,1.13-.06,2.24-.15,3.35q4.13-.54,8.1-1.19c0-.72.05-1.44.05-2.16A49.73,49.73,0,0,0,159.08,157.51Z"/><path class="cls-2" d="M118,228a42.07,42.07,0,0,1-40.36-30.4q-4.35-.54-8.55-1.19a50,50,0,0,0,97.82,0q-4.2.65-8.55,1.19A42.07,42.07,0,0,1,118,228Z"/><path class="cls-2" d="M118,144a41.76,41.76,0,0,1,23.48,7.19q5.79-.41,11.39-1a50,50,0,0,0-69.74,0q5.59.6,11.39,1A41.76,41.76,0,0,1,118,144Z"/><path class="cls-2" d="M76.15,189.35q-4.12-.54-8.1-1.19a50.84,50.84,0,0,0,1,8.25q4.2.65,8.55,1.19A41.56,41.56,0,0,1,76.15,189.35Z"/><path class="cls-2" d="M159.85,189.35a41.56,41.56,0,0,1-1.49,8.25q4.35-.54,8.55-1.19a50.84,50.84,0,0,0,1-8.25Q164,188.81,159.85,189.35Z"/><path class="cls-2" d="M86.27,158.53a42.7,42.7,0,0,1,8.25-7.34q-5.79-.41-11.39-1a50,50,0,0,0-6.21,7.33Q81.51,158.08,86.27,158.53Z"/><path class="cls-2" d="M149.73,158.53q4.76-.45,9.35-1a50,50,0,0,0-6.21-7.33q-5.6.6-11.39,1A42.7,42.7,0,0,1,149.73,158.53Z"/><path class="cls-2" d="M131,184.75v16H105v-16h26m8-8H97v32h42v-32Z"/><path class="cls-2" d="M132.5,176.75h-8v-3.5c0-7.21-1.92-8-6-8s-6,.79-6,8v3.5h-8v-3.5c0-4,0-16,14-16s14,12,14,16Z"/></g></g></svg>