<svg xmlns="http://www.w3.org/2000/svg" viewBox="0 0 236 140"><defs><style>.cls-1{fill:#8ff4cc;}</style></defs><title>icon_ui</title><g id="Layer_2" data-name="Layer 2"><g id="Layer_1-2" data-name="Layer 1"><path class="cls-1" d="M217,8a3,3,0,0,1,3,3V116H16V11a3,3,0,0,1,3-3H217m0-8H19A11,11,0,0,0,8,11V124H228V11A11,11,0,0,0,217,0Z"/><path class="cls-1" d="M232,132H4a4,4,0,0,0,0,8H232a4,4,0,0,0,0-8Z"/><path class="cls-1" d="M68,24A20,20,0,1,1,48,44,20,20,0,0,1,68,24m0-8A28,28,0,1,0,96,44,28,28,0,0,0,68,16Z"/><polygon class="cls-1" points="72 18 64 18 64 48 72 48 72 18 72 18"/><polygon class="cls-1" points="132 32.14 124 32.14 124 62.14 132 62.14 132 32.14 132 32.14"/><polygon class="cls-1" points="148 39.12 140 39.12 140 62.14 148 62.14 148 39.12 148 39.12"/><polygon class="cls-1" points="164 17.86 156 17.86 156 62.14 164 62.14 164 17.86 164 17.86"/><polygon class="cls-1" points="196 62.14 124 62.14 124 70.14 196 70.14 196 62.14 196 62.14"/><polygon class="cls-1" points="196 83.86 40 83.86 40 91.86 196 91.86 196 83.86 196 83.86"/><polygon class="cls-1" points="118 99.86 40 99.86 40 107.86 118 107.86 118 99.86 118 99.86"/><polygon class="cls-1" points="161 99.86 126 99.86 126 107.86 161 107.86 161 99.86 161 99.86"/><polygon class="cls-1" points="196 100 169 100 169 108 196 108 196 100 196 100"/><polygon class="cls-1" points="180 32.14 172 32.14 172 62.14 180 62.14 180 32.14 180 32.14"/><polygon class="cls-1" points="196 47.14 188 47.14 188 62.14 196 62.14 196 47.14 196 47.14"/><polygon class="cls-1" points="69.66 42.34 64 48 81.5 65.5 87.16 59.84 69.66 42.34 69.66 42.34"/></g></g></svg>