<svg xmlns="http://www.w3.org/2000/svg" viewBox="0 0 30 24"><path d="M29.76 2.84c-1.09.48-2.25.81-3.48.95A6.077 6.077 0 0 0 28.94.44c-1.17.69-2.47 1.2-3.85 1.47A5.99 5.99 0 0 0 20.68 0c-3.34 0-6.06 2.71-6.06 6.05 0 .48.06.94.16 1.38-5.04-.25-9.5-2.66-12.49-6.32-.53.89-.82 1.93-.82 3.05 0 2.1 1.07 3.96 2.69 5.04-.99-.03-1.93-.3-2.74-.76v.07c0 2.93 2.09 5.39 4.86 5.94a6.12 6.12 0 0 1-2.74.1 6.065 6.065 0 0 0 5.66 4.21 12.189 12.189 0 0 1-7.53 2.59c-.49 0-.97-.03-1.45-.08C2.92 23 6.1 24 9.52 24c11.14 0 17.24-9.23 17.24-17.24 0-.26-.01-.52-.02-.78 1.18-.85 2.21-1.92 3.02-3.14z" fill="#8ff4cc"/></svg>