<svg xmlns="http://www.w3.org/2000/svg" version="1.0" width="714" height="320" preserveAspectRatio="xMidYMid meet"><rect id="backgroundrect" width="100%" height="100%" x="0" y="0" fill="none" stroke="none"/>
<metadata>
Created by potrace 1.13, written by Peter Selinger 2001-2015
</metadata>

<g class="currentLayer" style=""><title>Layer 1</title>










<path d="M610.0298632293499,18.077014262631792 c-31.560589974531375,32.15984168290855 -49.43826594111719,55.03128188597085 -61.02379896974263,78.00259737376267 c-6.292142937960369,12.484410591191208 -8.489399202010022,22.372063779414646 -6.991269931067077,31.460714689801847 c1.5980045556724747,8.78902505619861 4.893888951746954,15.18104327888851 10.686655466059674,20.57430865428311 c10.387029611871085,9.588027334034848 22.172313209955586,12.284660021732149 52.53439976773261,11.88515888281403 l20.374558084824052,-0.299625854188589 l0.299625854188589,-22.272188494685118 l0.19975056945905934,-22.172313209955586 l-20.8739345084717,0 c-13.583038723216035,0 -21.17356036266029,-0.39950113891811867 -21.573061501578408,-1.0986281320248263 c-1.5980045556724747,-2.4968821182382417 13.982539862134153,-22.871440203062292 34.057472092769615,-44.4445017046407 l9.288401479846259,-10.187279042412026 l0.09987528472952967,-28.264705578456898 c0.09987528472952967,-15.580544417806628 -0.299625854188589,-28.464456147915953 -0.7990022778362373,-28.664206717375016 c-0.39950113891811867,-0.09987528472952967 -7.790272208903314,6.891394646337547 -16.279671410913338,15.480669133077098 z" id="svg_2" fill="#ec008c" class="" fill-opacity="1"/><path d="M629.6054190363377,69.51278589833956 c-0.299625854188589,0.6991269931067077 -0.39950113891811867,10.786530750789204 -0.299625854188589,22.272188494685118 l0.299625854188589,20.97380979320123 l20.97380979320123,0.19975056945905934 c18.1773018207744,0.09987528472952967 20.97380979320123,0.39950113891811867 21.273435647389817,1.797755125131534 c0.6991269931067077,3.0961338266154197 -16.779047834560984,25.168571751841476 -33.85772152331056,42.94637243369776 l-9.588027334034848,9.987528472952967 l-0.7990022778362373,29.163583141022663 c-0.5992517083771779,25.268447036571004 -0.49937642364764834,29.26345842575219 0.7990022778362373,29.26345842575219 c1.797755125131534,0 27.86520443953878,-26.666701022784423 40.14986446127092,-40.94886673910716 c22.871440203062292,-26.666701022784423 37.65298234303268,-49.837767080035306 42.14737015586152,-66.01756320621911 c0.898877562565767,-3.4956349655335384 2.097380979320123,-6.591768792148958 2.4968821182382417,-6.691644076878488 c1.3982539862134153,-0.5992517083771779 0.898877562565767,-10.886406035518734 -0.6991269931067077,-13.782789292675094 c-0.7990022778362373,-1.5980045556724747 -1.498129270942945,-3.595510250263068 -1.498129270942945,-4.394512528099305 c0,-2.5967574029677714 -5.692891229583191,-11.485657743895912 -9.388276764575789,-14.78154213997039 c-4.194761958640246,-3.595510250263068 -9.787777903493907,-6.691644076878488 -16.479421980372393,-8.88890034092814 c-6.591768792148958,-2.1972562640496527 -54.73165603178226,-3.1960091113449494 -55.530658309618495,-1.0986281320248263 z" id="svg_3" fill="#ec008c" class="" fill-opacity="1"/><path d="M31.35246350645498,217.72770843696156 c-9.488152049305318,1.2983787014838857 -15.780294987265687,4.094886673910716 -21.07368507793076,9.288401479846259 c-6.791519361608017,6.591768792148958 -8.689149771469081,11.685408313354971 -9.18852619511673,25.168571751841476 c-0.299625854188589,8.98877562565767 -0.09987528472952967,12.883911730109327 1.2983787014838857,17.378299542938162 c3.0961338266154197,10.986281320248263 10.287154327141556,18.576802959692518 20.77405922374217,22.072437925226055 c6.392018222689899,2.1972562640496527 29.76283484939984,2.2971315487791824 36.154853072089736,0.19975056945905934 l3.9950113891811867,-1.2983787014838857 l0,-5.99251708377178 c0,-5.792766514312721 -0.09987528472952967,-5.99251708377178 -2.4968821182382417,-5.692891229583191 c-1.3982539862134153,0.19975056945905934 -8.589274486739551,0.49937642364764834 -15.980045556724747,0.898877562565767 c-12.584285875920738,0.49937642364764834 -13.882664577404624,0.39950113891811867 -18.37705239023346,-1.6978798404020043 c-5.393265375394602,-2.5967574029677714 -8.589274486739551,-6.991269931067077 -10.387029611871085,-14.182290431593213 c-3.7952608197221274,-15.28091856361804 1.5980045556724747,-28.464456147915953 13.083662299568386,-31.660465259260903 c4.594263097558365,-1.2983787014838857 21.672936786307936,-0.9987528472952967 30.961338266154197,0.49937642364764834 l3.7952608197221274,0.5992517083771779 l-0.299625854188589,-6.292142937960369 c-0.299625854188589,-6.292142937960369 -0.299625854188589,-6.392018222689899 -3.7952608197221274,-7.490646354714725 c-3.6953855349925977,-1.198503416754356 -23.470691911439474,-2.4968821182382417 -28.464456147915953,-1.797755125131534 z" id="svg_4" fill="#11284b" class=""/><path d="M100.26640996983045,219.32571299263407 c-4.394512528099305,0.39950113891811867 -8.98877562565767,1.2983787014838857 -10.287154327141556,1.797755125131534 c-1.2983787014838857,0.5992517083771779 -3.0961338266154197,0.9987528472952967 -4.094886673910716,0.9987528472952967 c-2.397006833508712,0 -3.0961338266154197,1.8976304098610637 -3.0961338266154197,8.589274486739551 c0,6.192267653230839 0.09987528472952967,6.192267653230839 8.089898063091903,3.6953855349925977 c6.991269931067077,-2.097380979320123 25.368322321300536,-2.397006833508712 29.163583141022663,-0.39950113891811867 c3.295884396074479,1.6978798404020043 5.89264179904225,7.191020500526136 5.493140660124132,11.285907174436852 l-0.299625854188589,3.1960091113449494 l-12.08490945227309,-0.299625854188589 c-16.579297265101925,-0.299625854188589 -24.469444758734767,1.797755125131534 -30.16233598831796,8.289648632550962 c-4.094886673910716,4.694138382287894 -5.493140660124132,9.488152049305318 -4.993764236476483,17.57805011239722 c0.49937642364764834,8.589274486739551 3.895136104451657,13.982539862134153 11.285907174436852,17.877675966585812 c8.089898063091903,4.194761958640246 27.86520443953878,4.194761958640246 39.95011389181187,-0.09987528472952967 c7.091145215796606,-2.4968821182382417 9.488152049305318,-3.9950113891811867 10.087403757682496,-6.192267653230839 c0.299625854188589,-1.2983787014838857 0.39950113891811867,-12.883911730109327 0.19975056945905934,-25.667948175489123 c-0.299625854188589,-19.176054668069696 -0.5992517083771779,-24.069943619816648 -1.9975056945905934,-27.16607744643207 c-3.1960091113449494,-7.091145215796606 -10.786530750789204,-12.18478473700262 -19.875181661176406,-13.183537584297916 c-2.99625854188589,-0.299625854188589 -6.292142937960369,-0.6991269931067077 -7.390771069985195,-0.898877562565767 c-1.0986281320248263,-0.19975056945905934 -5.593015944853661,0.09987528472952967 -9.987528472952967,0.5992517083771779 zm23.870193050357592,42.34712072532058 c1.2983787014838857,0.49937642364764834 1.5980045556724747,2.2971315487791824 1.5980045556724747,8.98877562565767 c0,7.490646354714725 -0.19975056945905934,8.389523917280492 -2.1972562640496527,9.488152049305318 c-2.696632687697301,1.3982539862134153 -18.1773018207744,2.397006833508712 -23.27094134198041,1.498129270942945 c-6.891394646337547,-1.2983787014838857 -9.887653188223437,-6.691644076878488 -7.890147493632844,-14.282165716322742 c1.0986281320248263,-4.194761958640246 7.690396924173784,-6.292142937960369 19.575555806987815,-6.292142937960369 c5.792766514312721,0 11.285907174436852,0.299625854188589 12.18478473700262,0.5992517083771779 z" id="svg_5" fill="#11284b" class=""/><path d="M175.17287351697772,219.22583770790453 c-6.991269931067077,1.2983787014838857 -10.686655466059674,3.295884396074479 -14.681666855240861,7.790272208903314 c-5.99251708377178,6.491893507419428 -6.292142937960369,8.489399202010022 -6.292142937960369,39.55061275289375 l0,27.965079724268307 l6.991269931067077,0 l6.991269931067077,0 l0.49937642364764834,-28.264705578456898 l0.49937642364764834,-28.364580863186426 l2.696632687697301,-2.2971315487791824 c3.1960091113449494,-2.7965079724268307 11.285907174436852,-4.094886673910716 19.875181661176406,-3.0961338266154197 c6.392018222689899,0.5992517083771779 8.78902505619861,1.797755125131534 10.986281320248263,4.993764236476483 c1.198503416754356,1.797755125131534 1.8976304098610637,22.471939064144173 1.8976304098610637,56.32966058745473 c0,0.9987528472952967 1.6978798404020043,1.198503416754356 6.791519361608017,0.9987528472952967 l6.691644076878488,-0.299625854188589 l0.299625854188589,-27.665453870079716 c0.19975056945905934,-25.667948175489123 0.09987528472952967,-27.965079724268307 -1.797755125131534,-33.05871924547432 c-2.1972562640496527,-5.792766514312721 -4.394512528099305,-8.389523917280492 -10.087403757682496,-11.485657743895912 c-7.091145215796606,-3.895136104451657 -19.875181661176406,-5.193514805935543 -31.360839405072316,-3.0961338266154197 z" id="svg_6" fill="#11284b" class=""/><path d="M254.07434845330613,220.02483998574075 c-8.589274486739551,2.397006833508712 -16.779047834560984,9.0886509103872 -20.274682800094524,16.479421980372393 c-3.3957596808040087,7.091145215796606 -4.794013667017424,19.375805237528755 -3.295884396074479,29.26345842575219 c1.498129270942945,10.586780181330145 4.494387812828835,16.579297265101925 10.986281320248263,22.471939064144173 c6.991269931067077,6.292142937960369 13.283412869027446,8.089898063091903 26.367075168595832,7.590521639444255 c11.585533028625441,-0.49937642364764834 17.478174827667694,-2.696632687697301 23.470691911439474,-8.589274486739551 c13.283412869027446,-13.383288153756975 13.283412869027446,-45.94263097558365 -0.09987528472952967,-59.22604384461109 c-6.192267653230839,-6.192267653230839 -11.685408313354971,-8.189773347821433 -23.67044248089853,-8.489399202010022 c-5.792766514312721,-0.19975056945905934 -11.7852835980845,0.09987528472952967 -13.483163438486505,0.49937642364764834 zm23.67044248089853,14.78154213997039 c6.891394646337547,3.9950113891811867 10.486904896600615,13.782789292675094 9.588027334034848,26.267199883866304 c-0.5992517083771779,8.289648632550962 -3.595510250263068,14.98129270942945 -8.189773347821433,18.476927674962987 c-4.893888951746954,3.6953855349925977 -16.179796126183806,4.694138382287894 -23.071190772521355,1.9975056945905934 c-9.18852619511673,-3.4956349655335384 -13.882664577404624,-15.880170271995217 -11.585533028625441,-30.461961842506547 c1.6978798404020043,-10.586780181330145 5.792766514312721,-16.179796126183806 13.183537584297916,-18.077426536044868 c5.493140660124132,-1.3982539862134153 16.279671410913338,-0.39950113891811867 20.07493223063546,1.797755125131534 z" id="svg_7" fill="#11284b" class=""/><path d="M331.9770705423393,220.22459055519982 c-5.493140660124132,0.49937642364764834 -11.7852835980845,1.198503416754356 -13.982539862134153,1.5980045556724747 l-3.9950113891811867,0.7990022778362373 l-0.299625854188589,48.73913894801048 l-0.19975056945905934,48.63926366328095 l6.991269931067077,0 l6.991269931067077,0 l0,-12.784036445379797 c0,-7.091145215796606 0.299625854188589,-13.183537584297916 0.5992517083771779,-13.483163438486505 c0.39950113891811867,-0.299625854188589 1.5980045556724747,-0.09987528472952967 2.696632687697301,0.49937642364764834 c3.0961338266154197,1.5980045556724747 20.374558084824052,1.5980045556724747 25.667948175489123,-0.09987528472952967 c9.18852619511673,-2.99625854188589 16.479421980372393,-9.388276764575789 19.975056945905934,-17.67792539712675 c3.295884396074479,-7.490646354714725 4.594263097558365,-19.375805237528755 3.0961338266154197,-28.164830293727366 c-3.7952608197221274,-22.471939064144173 -17.27842425820863,-30.461961842506547 -47.54063553125612,-28.064955008997835 zm21.772812071037468,14.481916285781802 c6.292142937960369,2.097380979320123 10.187279042412026,6.791519361608017 11.685408313354971,14.082415146863683 c1.3982539862134153,6.491893507419428 0.6991269931067077,16.379546695642865 -1.498129270942945,21.573061501578408 c-1.8976304098610637,4.694138382287894 -7.191020500526136,9.0886509103872 -12.784036445379797,10.686655466059674 c-5.193514805935543,1.3982539862134153 -16.379546695642865,0.9987528472952967 -20.8739345084717,-0.898877562565767 l-2.7965079724268307,-1.0986281320248263 l0,-21.972562640496527 c0,-21.872687355767 0,-22.072437925226055 2.2971315487791824,-22.971315487791824 c3.7952608197221274,-1.498129270942945 18.876428813881105,-1.198503416754356 23.97006833508712,0.5992517083771779 z" id="svg_8" fill="#11284b" class=""/><path d="M394.6987493524839,220.32446583992936 c-0.7990022778362373,0.898877562565767 -0.898877562565767,12.983787014838857 -0.39950113891811867,38.252234051409864 l0.5992517083771779,36.95385534992597 l6.491893507419428,0 l6.491893507419428,0 l0,-37.952608197221274 l0,-37.952608197221274 l-6.09239236850131,-0.299625854188589 c-4.094886673910716,-0.19975056945905934 -6.392018222689899,0.09987528472952967 -7.091145215796606,0.9987528472952967 z" id="svg_9" fill="#11284b" class=""/><path d="M529.2307578831603,220.1247152704703 c-15.18104327888851,1.5980045556724747 -23.97006833508712,10.087403757682496 -23.97006833508712,23.171066057250883 c0.09987528472952967,9.887653188223437 5.792766514312721,17.67792539712675 15.18104327888851,20.47443336955358 c2.397006833508712,0.6991269931067077 8.88890034092814,1.2983787014838857 14.481916285781802,1.2983787014838857 c11.385782459166382,0 14.78154213997039,0.9987528472952967 16.079920841454275,4.893888951746954 c1.198503416754356,3.6953855349925977 0.09987528472952967,7.091145215796606 -3.0961338266154197,9.488152049305318 c-3.895136104451657,2.8963832571563604 -20.57430865428311,3.4956349655335384 -29.163583141022663,1.0986281320248263 c-3.295884396074479,-0.898877562565767 -7.191020500526136,-1.8976304098610637 -8.689149771469081,-2.1972562640496527 l-2.7965079724268307,-0.49937642364764834 l0,6.591768792148958 c0,5.99251708377178 0.19975056945905934,6.691644076878488 2.2971315487791824,7.490646354714725 c7.390771069985195,2.8963832571563604 12.08490945227309,3.595510250263068 24.16981890454618,3.595510250263068 c11.7852835980845,-0.09987528472952967 13.483163438486505,-0.299625854188589 18.476927674962987,-2.696632687697301 c2.99625854188589,-1.3982539862134153 6.691644076878488,-3.7952608197221274 8.189773347821433,-5.393265375394602 c7.590521639444255,-8.089898063091903 7.790272208903314,-21.273435647389817 0.39950113891811867,-29.163583141022663 c-4.794013667017424,-5.093639521206013 -8.589274486739551,-6.292142937960369 -23.77031776562806,-7.091145215796606 c-8.289648632550962,-0.49937642364764834 -14.282165716322742,-1.2983787014838857 -15.18104327888851,-1.9975056945905934 c-2.1972562640496527,-1.8976304098610637 -2.8963832571563604,-6.591768792148958 -1.3982539862134153,-9.787777903493907 c2.097380979320123,-4.394512528099305 6.991269931067077,-6.192267653230839 16.978798404020043,-6.292142937960369 c7.790272208903314,0 12.484410591191208,0.7990022778362373 22.471939064144173,3.7952608197221274 c1.6978798404020043,0.5992517083771779 3.3957596808040087,0.7990022778362373 3.6953855349925977,0.39950113891811867 c0.299625854188589,-0.299625854188589 0.5992517083771779,-3.0961338266154197 0.5992517083771779,-6.192267653230839 c0,-6.09239236850131 -1.797755125131534,-8.98877562565767 -5.692891229583191,-8.98877562565767 c-1.0986281320248263,0 -3.295884396074479,-0.39950113891811867 -4.893888951746954,-0.898877562565767 c-4.194761958640246,-1.2983787014838857 -16.779047834560984,-1.8976304098610637 -24.36956947400524,-1.0986281320248263 z" id="svg_10" fill="#11284b" class=""/><path d="M426.1594640422858,221.12346811776558 c-0.09987528472952967,0.49937642364764834 -0.09987528472952967,13.882664577404624 0.19975056945905934,29.66295956467031 l0.49937642364764834,28.764082002104544 l2.7965079724268307,4.794013667017424 c3.3957596808040087,5.692891229583191 8.88890034092814,9.588027334034848 15.880170271995217,11.086156604977793 c6.591768792148958,1.3982539862134153 21.872687355767,1.2983787014838857 27.46570330062066,-0.299625854188589 c5.89264179904225,-1.5980045556724747 12.18478473700262,-6.791519361608017 14.88141742469992,-12.08490945227309 c2.2971315487791824,-4.394512528099305 2.2971315487791824,-5.193514805935543 2.397006833508712,-33.757846238581024 l0,-29.26345842575219 l-6.691644076878488,0.299625854188589 l-6.791519361608017,0.299625854188589 l-0.49937642364764834,28.264705578456898 l-0.49937642364764834,28.364580863186426 l-2.8963832571563604,2.2971315487791824 c-5.093639521206013,3.9950113891811867 -22.471939064144173,4.494387812828835 -28.164830293727366,0.898877562565767 c-4.094886673910716,-2.696632687697301 -4.394512528099305,-5.293390090665072 -4.394512528099305,-33.35834509966291 l0,-26.96632687697301 l-6.891394646337547,0 c-3.7952608197221274,0 -7.091145215796606,0.39950113891811867 -7.290895785255666,0.9987528472952967 z" id="svg_11" fill="#11284b" class=""/></g></svg>