<svg xmlns="http://www.w3.org/2000/svg" version="1.0" width="714.000000" height="320.000000" preserveAspectRatio="xMidYMid meet" style=""><rect id="backgroundrect" width="100%" height="100%" x="0" y="0" fill="none" stroke="none"/>
<metadata>
Created by potrace 1.13, written by Peter Selinger 2001-2015
</metadata>

<g class="currentLayer" style=""><title>Layer 1</title><g transform="translate(0,320) scale(0.10000000149011612,-0.10000000149011612) " fill="#ffffff" stroke="none" id="svg_1" class="selected" fill-opacity="1">
<path d="M6099 3023 c-316 -322 -495 -551 -611 -781 -63 -125 -85 -224 -70 -315 16 -88 49 -152 107 -206 104 -96 222 -123 526 -119 l204 3 3 223 2 222 -209 0 c-136 0 -212 4 -216 11 -16 25 140 229 341 445 l93 102 1 283 c1 156 -3 285 -8 287 -4 1 -78 -69 -163 -155z" id="svg_2" fill="#ffffff" fill-opacity="1"/>
<path d="M6295 2508 c-3 -7 -4 -108 -3 -223 l3 -210 210 -2 c182 -1 210 -4 213 -18 7 -31 -168 -252 -339 -430 l-96 -100 -8 -292 c-6 -253 -5 -293 8 -293 18 0 279 267 402 410 229 267 377 499 422 661 9 35 21 66 25 67 14 6 9 109 -7 138 -8 16 -15 36 -15 44 0 26 -57 115 -94 148 -42 36 -98 67 -165 89 -66 22 -548 32 -556 11z" id="svg_3" fill="#ffffff" fill-opacity="1"/>
<path d="M305 1024 c-95 -13 -158 -41 -211 -93 -68 -66 -87 -117 -92 -252 -3 -90 -1 -129 13 -174 31 -110 103 -186 208 -221 64 -22 298 -23 362 -2 l40 13 0 60 c0 58 -1 60 -25 57 -14 -2 -86 -5 -160 -9 -126 -5 -139 -4 -184 17 -54 26 -86 70 -104 142 -38 153 16 285 131 317 46 13 217 10 310 -5 l38 -6 -3 63 c-3 63 -3 64 -38 75 -37 12 -235 25 -285 18z" id="svg_4" fill="#ffffff" fill-opacity="1"/>
<path d="M995 1008 c-44 -4 -90 -13 -103 -18 -13 -6 -31 -10 -41 -10 -24 0 -31 -19 -31 -86 0 -62 1 -62 81 -37 70 21 254 24 292 4 33 -17 59 -72 55 -113 l-3 -32 -121 3 c-166 3 -245 -18 -302 -83 -41 -47 -55 -95 -50 -176 5 -86 39 -140 113 -179 81 -42 279 -42 400 1 71 25 95 40 101 62 3 13 4 129 2 257 -3 192 -6 241 -20 272 -32 71 -108 122 -199 132 -30 3 -63 7 -74 9 -11 2 -56 -1 -100 -6z m239 -424 c13 -5 16 -23 16 -90 0 -75 -2 -84 -22 -95 -27 -14 -182 -24 -233 -15 -69 13 -99 67 -79 143 11 42 77 63 196 63 58 0 113 -3 122 -6z" id="svg_5" fill="#ffffff" fill-opacity="1"/>
<path d="M1745 1009 c-70 -13 -107 -33 -147 -78 -60 -65 -63 -85 -63 -396 l0 -280 70 0 70 0 5 283 5 284 27 23 c32 28 113 41 199 31 64 -6 88 -18 110 -50 12 -18 19 -225 19 -564 0 -10 17 -12 68 -10 l67 3 3 277 c2 257 1 280 -18 331 -22 58 -44 84 -101 115 -71 39 -199 52 -314 31z" id="svg_6" fill="#ffffff" fill-opacity="1"/>
<path d="M2535 1001 c-86 -24 -168 -91 -203 -165 -34 -71 -48 -194 -33 -293 15 -106 45 -166 110 -225 70 -63 133 -81 264 -76 116 5 175 27 235 86 133 134 133 460 -1 593 -62 62 -117 82 -237 85 -58 2 -118 -1 -135 -5z m237 -148 c69 -40 105 -138 96 -263 -6 -83 -36 -150 -82 -185 -49 -37 -162 -47 -231 -20 -92 35 -139 159 -116 305 17 106 58 162 132 181 55 14 163 4 201 -18z" id="svg_7" fill="#ffffff" fill-opacity="1"/>
<path d="M3315 999 c-55 -5 -118 -12 -140 -16 l-40 -8 -3 -488 -2 -487 70 0 70 0 0 128 c0 71 3 132 6 135 4 3 16 1 27 -5 31 -16 204 -16 257 1 92 30 165 94 200 177 33 75 46 194 31 282 -38 225 -173 305 -476 281z m218 -145 c63 -21 102 -68 117 -141 14 -65 7 -164 -15 -216 -19 -47 -72 -91 -128 -107 -52 -14 -164 -10 -209 9 l-28 11 0 220 c0 219 0 221 23 230 38 15 189 12 240 -6z" id="svg_8" fill="#ffffff" fill-opacity="1"/>
<path d="M3943 998 c-8 -9 -9 -130 -4 -383 l6 -370 65 0 65 0 0 380 0 380 -61 3 c-41 2 -64 -1 -71 -10z" id="svg_9" fill="#ffffff" fill-opacity="1"/>
<path d="M5290 1000 c-152 -16 -240 -101 -240 -232 1 -99 58 -177 152 -205 24 -7 89 -13 145 -13 114 0 148 -10 161 -49 12 -37 1 -71 -31 -95 -39 -29 -206 -35 -292 -11 -33 9 -72 19 -87 22 l-28 5 0 -66 c0 -60 2 -67 23 -75 74 -29 121 -36 242 -36 118 1 135 3 185 27 30 14 67 38 82 54 76 81 78 213 4 292 -48 51 -86 63 -238 71 -83 5 -143 13 -152 20 -22 19 -29 66 -14 98 21 44 70 62 170 63 78 0 125 -8 225 -38 17 -6 34 -8 37 -4 3 3 6 31 6 62 0 61 -18 90 -57 90 -11 0 -33 4 -49 9 -42 13 -168 19 -244 11z" id="svg_10" fill="#ffffff" fill-opacity="1"/>
<path d="M4258 990 c-1 -5 -1 -139 2 -297 l5 -288 28 -48 c34 -57 89 -96 159 -111 66 -14 219 -13 275 3 59 16 122 68 149 121 23 44 23 52 24 338 l0 293 -67 -3 -68 -3 -5 -283 -5 -284 -29 -23 c-51 -40 -225 -45 -282 -9 -41 27 -44 53 -44 334 l0 270 -69 0 c-38 0 -71 -4 -73 -10z" id="svg_11" fill="#ffffff" fill-opacity="1"/>
</g></g></svg>