<svg version="1.1" id="Layer_1" xmlns="http://www.w3.org/2000/svg" x="0" y="0" viewBox="0 0 218 64" xml:space="preserve"><style>.st0{fill:#00df82}</style><path class="st0" d="M89.83 1.44v14.24h16.38V1.44h7.73v35.53h-7.73V22.38H89.83v14.59H82.1V1.44h7.73zM126.83 12.29v25.37h-7.26V12.29h7.26zm.51-8.04c0 2.43-1.71 4.25-4.14 4.25-2.43 0-4.14-1.82-4.14-4.25 0-2.48 1.71-4.25 4.14-4.25 2.43 0 4.14 1.77 4.14 4.25zM158.18 25.12c0 7.69-5.74 12.8-11.27 12.8-3.38 0-6.33-1.39-8.09-3.93V47.1h-6.66V12.29h6.66v3.15c1.71-2.55 4.37-3.67 7.67-3.67 6.8 0 11.69 5.52 11.69 13.35zm-7.03-.24c0-4.06-2.44-6.98-6-6.98s-6.62 2.88-6.62 6.98c0 4.2 2.77 6.45 6.33 6.45s6.29-2.3 6.29-6.45zM188.21 25.12c0 7.69-5.74 12.8-11.27 12.8-3.38 0-6.33-1.39-8.09-3.93V47.1h-6.66V12.29h6.66v3.15c1.71-2.55 4.37-3.67 7.67-3.67 6.8 0 11.69 5.52 11.69 13.35zm-7.03-.24c0-4.06-2.44-6.98-6-6.98s-6.62 2.88-6.62 6.98c0 4.2 2.77 6.45 6.33 6.45s6.29-2.3 6.29-6.45zM217.72 24.69c0 7.73-5.47 12.97-13.58 12.97-8.16 0-13.63-5.24-13.63-12.97 0-7.78 5.47-12.92 13.63-12.92 8.11 0 13.58 5.14 13.58 12.92zm-19.95.09c0 4.15 2.59 6.98 6.37 6.98 3.73 0 6.32-2.83 6.32-6.98s-2.59-6.98-6.32-6.98c-3.78 0-6.37 2.83-6.37 6.98zM111.71 47.73H2.59a2.311 2.311 0 0 1 0-4.62h109.12a2.311 2.311 0 0 1 0 4.62z"/><path class="st0" d="M54.12 11.86a3.31 3.31 0 1 1 2.11 5.86l-.01.02c-.64.46-.9 1.31-.6 2.04l-.01.02c.01.02.03.04.04.06.01.03.03.07.05.1.08.15.18.28.3.4 1.39 2.12 2.28 4.6 2.5 7.26v.02c0 .95.77 1.72 1.72 1.72.07 0 .14-.01.21-.01 6.21.29 11.16 5.42 11.16 11.71 0 .7-.06 1.39-.18 2.05H14.83c-.12-.67-.18-1.35-.18-2.05 0-6.23 4.86-11.32 10.99-11.7h.09c.88 0 1.6-.66 1.71-1.5v-.02c0-.03 0-.05.01-.08.2-2.79 1.13-5.37 2.61-7.56.12-.12.22-.26.31-.41l.03-.06.06-.09-.01-.03c.3-.74.05-1.58-.6-2.04-.63-.6-1.03-1.45-1.03-2.4A3.308 3.308 0 0 1 35 13.53l.02.01a1.716 1.716 0 0 0 1.88.99l.02.01c.03-.01.07-.03.1-.04.03-.01.06-.01.09-.02.11-.03.21-.08.3-.13 1.73-.66 3.6-1.02 5.55-1.02 2 0 3.91.38 5.66 1.07.13.08.27.15.42.2.06.02.12.03.18.05.01 0 .02.01.02.01l.01-.01a1.716 1.716 0 0 0 1.88-.99l.02-.01c.58-1.06 1.69-1.79 2.97-1.79m0-4.62c-2.11 0-4.09.83-5.54 2.26a19.94 19.94 0 0 0-5.6-.79c-1.83 0-3.63.24-5.38.73a7.93 7.93 0 0 0-5.47-2.19c-4.37 0-7.93 3.56-7.93 7.93 0 1.41.38 2.79 1.08 3.99a20.04 20.04 0 0 0-2.12 5.87c-7.52 1.5-13.13 8.16-13.13 16.02 0 .94.09 1.91.25 2.86l.67 3.82h64.34l.67-3.82c.17-.95.25-1.91.25-2.86 0-8.02-5.75-14.71-13.43-16.08-.38-1.93-1.05-3.8-1.97-5.54.8-1.26 1.24-2.73 1.24-4.26 0-4.38-3.56-7.94-7.93-7.94z"/><circle class="st0" cx="24.12" cy="40.9" r="4.48"/><circle class="st0" cx="61.93" cy="40.9" r="4.48"/><g><circle class="st0" cx="38.63" cy="26.82" r="2.49"/><circle class="st0" cx="47.34" cy="26.82" r="2.49"/></g><g><circle class="st0" cx="67.36" cy="53.57" r="2.31"/></g><g><circle class="st0" cx="28" cy="61.69" r="2.31"/></g><g><path class="st0" d="M58.49 64h-23.9c-1.28 0-2.31-1.04-2.31-2.31s1.04-2.31 2.31-2.31h23.9a2.311 2.311 0 0 1 0 4.62z"/></g><g><path class="st0" d="M61.1 55.88H18.99a2.311 2.311 0 0 1 0-4.62H61.1a2.311 2.311 0 0 1 0 4.62z"/></g></svg>