<svg version="1.1" id="Layer_1" xmlns="http://www.w3.org/2000/svg" x="0" y="0" viewBox="0 0 218 64" xml:space="preserve"><style>.st0{fill:#fff}</style><path class="st0" d="M89.83 22.38h16.38v14.59h7.73V1.44h-7.73v14.24H89.83V1.44H82.1v35.53h7.73zM123.2 0c-2.43 0-4.14 1.77-4.14 4.25 0 2.43 1.71 4.25 4.14 4.25s4.14-1.82 4.14-4.25c0-2.48-1.71-4.25-4.14-4.25zM119.57 12.29h7.26v25.37h-7.26zM146.48 11.77c-3.29 0-5.95 1.13-7.67 3.67v-3.15h-6.66V47.1h6.66V33.99c1.76 2.55 4.71 3.93 8.09 3.93 5.53 0 11.27-5.11 11.27-12.8.01-7.83-4.88-13.35-11.69-13.35zm-1.62 19.56c-3.56 0-6.33-2.25-6.33-6.45 0-4.1 3.06-6.98 6.62-6.98s6 2.92 6 6.98c0 4.15-2.73 6.45-6.29 6.45zM176.51 11.77c-3.29 0-5.95 1.13-7.67 3.67v-3.15h-6.66V47.1h6.66V33.99c1.76 2.55 4.71 3.93 8.09 3.93 5.53 0 11.27-5.11 11.27-12.8.01-7.83-4.88-13.35-11.69-13.35zm-1.62 19.56c-3.56 0-6.33-2.25-6.33-6.45 0-4.1 3.06-6.98 6.62-6.98s6 2.92 6 6.98c0 4.15-2.73 6.45-6.29 6.45zM204.13 11.77c-8.16 0-13.63 5.14-13.63 12.92 0 7.73 5.47 12.97 13.63 12.97 8.11 0 13.58-5.24 13.58-12.97.01-7.78-5.46-12.92-13.58-12.92zm0 19.99c-3.77 0-6.37-2.83-6.37-6.98s2.59-6.98 6.37-6.98c3.73 0 6.32 2.83 6.32 6.98s-2.59 6.98-6.32 6.98z"/><path class="st0" d="M111.71 43.11H76.08c.09-.69.15-1.37.15-2.05 0-8.02-5.75-14.71-13.43-16.08-.38-1.93-1.05-3.8-1.97-5.54.8-1.26 1.24-2.73 1.24-4.26 0-4.37-3.56-7.93-7.93-7.93-2.11 0-4.09.83-5.54 2.26a19.94 19.94 0 0 0-5.6-.79c-1.83 0-3.63.24-5.38.73a7.93 7.93 0 0 0-5.47-2.19c-4.37 0-7.93 3.56-7.93 7.93 0 1.41.38 2.79 1.08 3.99a20.04 20.04 0 0 0-2.12 5.87c-7.52 1.5-13.13 8.16-13.13 16.02 0 .68.06 1.37.15 2.05H2.59a2.311 2.311 0 0 0 0 4.62H111.71c1.28 0 2.31-1.04 2.31-2.31s-1.03-2.32-2.31-2.32zm-97.06-2.05c0-6.23 4.86-11.32 10.99-11.7h.09c.88 0 1.6-.66 1.71-1.5v-.02c0-.03 0-.05.01-.08.2-2.79 1.13-5.37 2.61-7.56.12-.12.22-.26.31-.41l.03-.06.06-.09-.01-.03c.3-.74.05-1.58-.6-2.04-.63-.6-1.03-1.45-1.03-2.4A3.308 3.308 0 0 1 35 13.53l.02.01a1.716 1.716 0 0 0 1.88.99l.02.01c.03-.01.07-.03.1-.04.03-.01.06-.01.09-.02.11-.03.21-.08.3-.13 1.73-.66 3.6-1.02 5.55-1.02 2 0 3.91.38 5.66 1.07.13.08.27.15.42.2.06.02.12.03.18.05.01 0 .02.01.02.01l.01-.01a1.716 1.716 0 0 0 1.88-.99l.02-.01a3.314 3.314 0 0 1 2.94-1.79 3.31 3.31 0 1 1 2.11 5.86l-.01.02c-.64.46-.9 1.31-.6 2.04l-.01.02c.01.02.03.04.04.06.01.03.03.07.05.1.08.15.18.28.3.4 1.39 2.12 2.28 4.6 2.5 7.26v.02c0 .95.77 1.72 1.72 1.72.07 0 .14-.01.21-.01 6.21.29 11.16 5.42 11.16 11.71 0 .7-.06 1.39-.18 2.05h-5.61c.37-.65.6-1.4.6-2.21 0-2.48-2.01-4.48-4.48-4.48-2.48 0-4.48 2.01-4.48 4.48 0 .81.23 1.55.6 2.21H28c.37-.65.6-1.4.6-2.21a4.479 4.479 0 1 0-8.96 0c0 .81.23 1.55.6 2.21h-5.4c-.12-.67-.19-1.35-.19-2.05z"/><circle class="st0" cx="38.63" cy="26.82" r="2.49"/><circle class="st0" cx="47.34" cy="26.82" r="2.49"/><path class="st0" d="M67.36 51.26c-1.28 0-2.31 1.03-2.31 2.31s1.03 2.31 2.31 2.31 2.31-1.03 2.31-2.31-1.03-2.31-2.31-2.31zM28 59.38c-1.28 0-2.31 1.03-2.31 2.31S26.72 64 28 64s2.31-1.03 2.31-2.31-1.03-2.31-2.31-2.31zM58.49 59.38h-23.9c-1.28 0-2.31 1.03-2.31 2.31S33.31 64 34.59 64h23.9a2.311 2.311 0 0 0 0-4.62zM61.1 51.26H18.99a2.311 2.311 0 0 0 0 4.62H61.1a2.311 2.311 0 0 0 0-4.62z"/></svg>