<svg version="1.1" id="Layer_1" xmlns="http://www.w3.org/2000/svg" x="0" y="0" viewBox="0 0 116 64" xml:space="preserve"><style>.st0{fill:#fff}</style><path class="st0" d="M9.06 63.39H1.57c-.92 0-1.66-.74-1.66-1.66V1.66C-.09.74.65 0 1.57 0h7.48c.92 0 1.66.74 1.66 1.66v60.07c.01.92-.74 1.66-1.65 1.66zM51.36 63.39h-7.48c-.92 0-1.66-.74-1.66-1.66V28.71c0-.92.74-1.66 1.66-1.66h7.48c.92 0 1.66.74 1.66 1.66v33.01c0 .93-.74 1.67-1.66 1.67z"/><path class="st0" d="M35.23 63.39h-9.25c-.75 0-1.45-.33-1.93-.91L8.37 43.37h12.18l15.84 17.38c.93 1.01.21 2.64-1.16 2.64z"/><path class="st0" d="M32.74 27.05H25c-1.02 0-1.99.43-2.68 1.17L8.21 43.51h12.44l13.24-13.78c.95-1.01.24-2.68-1.15-2.68zM82.23 26.24c-7.36 0-11.07 3.71-12.7 5.34l-1.18-3.08a2.252 2.252 0 0 0-2.1-1.45h-3c-.92 0-1.66.74-1.66 1.66v33.01c0 .92.74 1.66 1.66 1.66h7.48c.92 0 1.66-.74 1.66-1.66v-20.4c1.83-5.41 14.22-9.25 14.62 2.06v18.36c0 .92.74 1.66 1.66 1.66h7.48c.92 0 1.66-.74 1.66-1.66V43.37c.01-9.34-5.7-17.13-15.58-17.13z"/><circle class="st0" cx="47.62" cy="14.47" r="6.24"/><circle class="st0" cx="109.85" cy="57.76" r="6.24"/></svg>