<?xml version="1.0" encoding="UTF-8"?>
<svg width="291px" height="202px" viewBox="0 0 291 202" version="1.1" xmlns="http://www.w3.org/2000/svg" xmlns:xlink="http://www.w3.org/1999/xlink">
    <!-- Generator: Sketch 52.1 (67048) - http://www.bohemiancoding.com/sketch -->
    <title>Openly</title>
    <desc>Created with Sketch.</desc>
    <g id="Page-1" stroke="none" stroke-width="1" fill="none" fill-rule="evenodd">
        <path d="M79.557407,60.0357172 C80.3692173,65.6664362 80.0444932,69.8894755 78.7455968,76.7714655 C77.2843383,84.4354998 73.0629248,92.8815784 68.5167873,99.4507507 C66.5684426,102.26611 63.1588395,106.176332 60.3986845,108.678874 C55.5278229,113.058322 50.4945992,117.281361 41.5646861,120.25313 C36.5314624,121.973627 28.9004458,122.91208 20.1328948,120.722356 C13.8007747,119.158267 7.30629248,113.527548 4.87086165,106.645558 C2.59779288,100.85843 1.94834466,95.5405291 2.76015494,89.5969923 C3.2472411,86.9380416 3.89668932,83.6534555 4.87086165,81.1509137 C7.63101659,73.6432883 12.5018782,65.6664362 18.6716363,58.3152197 C20.457619,56.1254956 22.4059636,54.4049981 25.0037565,52.215274 C25.9779288,51.4332297 27.1144632,50.6511854 29.2251699,49.2435056 C36.5314624,45.1768751 40.9152379,43.7691954 48.5462545,45.333284 C50.4945992,45.9589195 51.7934956,47.0537815 52.6053059,48.6178701 C52.7676679,49.2435056 52.7676679,49.869141 52.4429438,50.0255499 C52.1182197,50.3383676 51.4687715,50.3383676 50.9816853,50.4947765 L49.6827889,50.0255499 C48.3838924,49.0870967 47.084996,49.0870967 45.9484616,49.3999145 C45.1366513,49.7127322 43.5130308,49.2435056 43.1883067,49.5563233 C36.5314624,50.8075942 32.310049,53.4665449 25.3284806,61.2869881 C23.0554118,64.2587565 20.619981,67.3869337 18.5092743,70.8279287 C15.5867573,75.6766035 13.1513265,80.6816871 11.5277059,86.3124062 C10.3911715,91.1610809 9.90408536,95.2277114 10.3911715,100.076386 C10.7158956,103.360972 11.690068,106.801967 13.6384126,109.773736 C17.0480158,115.091637 22.5683257,116.655726 28.4133597,116.812135 C39.6163415,116.968543 49.0333407,111.96346 56.5019952,104.768652 C62.5093912,98.9815241 68.1920632,90.5354455 70.3027699,85.2175441 C71.7640284,81.4637314 73.0629248,77.0842833 73.8747351,72.5484262 C74.5241833,69.8894755 74.6865454,66.6048894 74.5241833,63.633121 C74.0370972,58.3152197 72.9005628,52.9973183 69.9780458,48.3050524 C69.9780458,47.679417 69.4909596,47.3665992 69.0038734,46.8973726 C69.0038734,46.7409638 69.0038734,46.4281461 68.8415114,46.2717372 C68.8415114,46.2717372 68.5167873,46.1153283 68.3544252,46.1153283 C68.5167873,46.1153283 68.5167873,46.2717372 68.6791493,46.4281461 C68.8415114,46.5845549 68.8415114,46.8973726 69.0038734,46.8973726 C69.1662355,47.679417 69.3285976,48.4614613 69.6533217,49.0870967 C72.5758387,55.0306335 73.3876489,61.4433969 73.2252869,67.6997515 C73.0629248,69.2638401 72.2511145,70.9843376 71.7640284,72.7048351 C71.7640284,72.8612439 71.2769422,73.0176528 70.789856,73.7996971 C70.9522181,72.5484262 71.2769422,71.7663819 71.4393043,70.9843376 C72.4134766,62.538259 70.627494,54.4049981 66.4060806,46.5845549 C63.4835636,41.5794713 59.9115984,37.2000231 54.0665644,34.6974813 C52.2805818,33.915437 50.6569612,33.6026193 48.8709786,33.4462104 C46.2731857,33.2898015 43.8377549,33.7590281 41.4023241,34.2282547 C39.9410656,34.5410724 38.317445,35.1667079 37.1809106,35.7923433 C33.7713075,37.8256586 30.5240664,40.1717915 27.2768253,42.2051067 C26.1402909,42.8307422 25.0037565,43.9256042 23.3801359,43.9256042 C23.7048601,42.2051067 25.3284806,41.7358802 25.8155668,40.4846092 C22.5683257,41.892289 20.2952569,44.5512397 18.1845502,47.2101904 C17.8598261,47.5230081 17.8598261,47.8358258 17.697464,47.9922347 C16.5609296,48.9306879 15.4243952,49.5563233 14.4502229,50.3383676 C14.1254988,50.0255499 14.1254988,49.7127322 13.8007747,49.2435056 C12.3395162,50.4947765 10.5535336,51.4332297 10.5535336,53.6229538 C7.14393043,56.9075399 4.87086165,60.8177615 4.38377549,65.6664362 C4.05905138,67.2305249 3.40960316,68.3253869 2.11070672,69.2638401 C1.62362055,69.5766578 0.811810276,69.420249 0,69.5766578 C0.162362055,67.2305249 0.649448221,65.5100274 1.78598261,63.7895299 C2.92251699,62.2254412 4.05905138,60.5049437 4.87086165,58.7844463 C7.79337865,52.8409094 11.3653439,47.679417 15.9114814,42.8307422 C16.5609296,42.2051067 17.2103778,41.2666536 17.697464,40.4846092 C20.2952569,38.2948852 21.7565154,37.6692497 24.1919462,36.1051611 C24.5166703,35.4795256 25.0037565,35.3231168 25.8155668,35.010299 L33.4465834,31.7257129 C34.4207557,31.569304 35.232566,31.2564863 36.2067383,31.1000774 C44.6495652,29.5359888 52.7676679,29.2231711 60.7234086,32.9769838 C64.2953738,34.5410724 67.2178908,36.7307965 69.4909596,39.7025649 C74.8489074,45.6461017 78.4208726,52.3716829 79.557407,60.0357172 Z M23.4486053,48.8863017 C22.5373929,48.1166213 23.2663628,47.1545207 23.4486053,46.7696805 C23.6308478,46.5772603 23.8130902,46.1924201 24.1775752,46 C24.5420602,46.1924201 25.2710301,46.1924201 26,46.1924201 C25.4532726,47.731781 24.9065451,49.4635621 23.4486053,48.8863017 Z M13.6553497,51 C14.9660491,51 16.2767484,50.75 15.9490736,50 C14.3106994,50 13.3276748,50.25 13,50.75 L13.6553497,51 Z M11,62 C11.2142857,60.3255814 11.3214286,59.0697674 11.4285714,57.6046512 L14,53 C13.4642857,56.7674419 12.5,59.6976744 11,62 Z M6.96037961,62 C6.66037961,62.75 5.76037961,63 6.06037961,65 C7.11037961,64.5 6.96037961,63 6.96037961,62 Z M70,85 C72.4,84 72.4,83.8571429 73,82 C71.5,83.2857143 70.6,84.1428571 70,85 Z M70.9310345,89.4 C73.4137931,88.9 73.1034483,87.9 72.7931034,87 C71.862069,87.7 72.4827586,88.7 70.9310345,89.4 C70.9310345,89.5 70.6206897,89.6 70.3103448,89.7 C70.3103448,89.8 70,89.9 70,90 C70.3103448,89.8 70.6206897,89.8 70.6206897,89.8 C70.9310345,89.6 70.9310345,89.5 70.9310345,89.4 Z M71.9295265,93 C71.1971449,93.3529412 70.9530177,93.5294118 71.1971449,93.7058824 C69.7323816,95.1176471 69.7323816,95.1176471 69,96 C69.4882544,95.6470588 70.4647633,95.8235294 70.7088905,95.6470588 C70.9530177,94.9411765 71.1971449,94.5882353 70.9530177,94.5882353 C71.6853993,93.7058824 71.6853993,93.5294118 71.9295265,93.3529412 C71.6853993,93.1764706 72.1736538,93.1764706 71.9295265,93 Z M66,102 C67.8,100.8 68.1,99.8 69,99 C66.9,100.2 66.9,100.2 66,102 Z M63.45,101.3 C63.45,101.3 63.75,101 63.45,101 C63.6,101.15 63.15,101.3 63,101.45 C63.15,101.6 63.15,101.6 63.3,101.6 C63.3,101.45 63.45,101.45 63.45,101.3 Z M118.85832,83.8027456 C118.85832,85.6026895 119.334521,87.8935273 118.540853,89.52984 C118.223386,91.329784 116.794782,93.2933592 116.159848,94.9296719 C115.048712,96.4023534 113.778842,97.7114035 112.82644,99.3477162 L109.493032,102.293079 C108.223163,103.111235 107.270761,103.438498 106.000891,104.093023 C105.683424,104.093023 105.207223,104.256654 105.048489,104.093023 C104.25482,103.929392 103.302418,103.438498 102.350016,103.111235 C101.715081,102.783973 101.23888,102.620342 101.080147,101.638554 L100.762679,101.474923 C99.4928096,100.820398 99.0166085,99.3477162 98.8578748,97.7114035 C98.5404074,97.2205097 99.1753422,96.7296159 99.1753422,95.9114595 C100.127744,95.9114595 100.127744,96.7296159 100.286478,97.384141 C100.286478,98.6931911 101.23888,99.0204537 101.873815,98.8568224 C103.461152,98.5295599 104.413554,97.384141 105.207223,96.4023534 C106.318358,95.2569345 107.746962,94.1115156 108.54063,92.6388341 C109.493032,91.329784 110.286701,90.1843651 111.239103,88.5480524 L111.239103,87.8935273 C111.397837,87.2390022 111.874038,86.7481084 111.874038,86.4208459 C112.350239,84.9481645 112.985174,83.8027456 112.667706,82.3300642 C112.667706,81.3482765 112.191505,80.2028576 111.874038,79.3847013 C111.239103,78.5665449 109.334299,78.7301762 108.54063,79.3847013 C107.112027,80.0392264 106.159625,80.3664889 105.207223,81.1846453 L104.889755,81.1846453 C104.413554,81.6755391 103.937353,82.3300642 103.302418,82.6573267 C102.50875,83.6391143 101.715081,84.1300081 100.762679,84.7845332 C99.3340759,86.0935834 97.7467389,86.9117397 96.7943368,88.7116837 C95.5244672,90.8388902 93.9371303,92.8024654 92.3497933,94.4387781 C91.5561248,95.2569345 89.8100542,99.0204537 89.3338531,100.329504 L88.381451,100.329504 C88.6989183,100.493135 88.6989183,100.820398 88.6989183,100.984029 C88.2227173,101.638554 87.5877825,102.620342 87.1115814,103.111235 C86.794114,103.111235 86.794114,103.76576 86.6353803,104.093023 C87.1115814,104.093023 87.2703151,104.093023 87.5877825,103.929392 C86.794114,104.911179 86.9528477,106.547492 85.3655108,106.547492 C85.6829781,106.711123 85.8417118,106.711123 85.8417118,106.711123 C85.5242444,107.856542 85.3655108,108.674699 85.0480434,109.656486 C85.0480434,109.820117 84.5718423,109.820117 84.4131086,109.983749 C85.0480434,110.311011 84.730576,110.965536 84.4131086,111.783693 C84.2543749,112.274587 84.730576,113.092743 83.6194401,113.256374 C84.0956412,115.547212 83.143239,118.165312 82.0321032,118.656206 C82.3495706,118.819837 82.5083042,118.819837 82.6670379,118.983469 C82.5083042,118.983469 82.3495706,119.1471 82.0321032,119.1471 C82.3495706,119.310731 82.3495706,119.310731 82.5083042,119.310731 C82.3495706,120.292519 82.5083042,121.110675 82.3495706,121.928831 C82.0321032,123.565144 81.5559021,125.201457 81.079701,126.183244 C80.7622336,127.492295 80.6034999,128.474082 80.2860325,129.45587 C80.2860325,129.619501 80.2860325,129.946764 80.4447662,130.110395 C79.9685651,130.601289 79.4923641,130.928551 78.6986956,131.255814 C79.3336304,131.583076 79.4923641,132.07397 79.6510977,132.564864 C79.4923641,133.055758 79.4923641,133.38302 79.3336304,134.364808 C79.3336304,134.364808 78.8574293,134.528439 78.3812282,134.528439 L79.3336304,135.019333 C78.6986956,135.510227 78.3812282,135.673858 78.0637608,136.164752 L78.3812282,136.492014 C78.3812282,136.492014 78.6986956,136.655646 79.016163,136.655646 C77.9050271,138.619221 77.7462934,140.746427 77.5875597,143.037265 C77.5875597,143.364528 77.2700923,143.69179 77.2700923,143.855422 C76.9526249,145.164472 76.9526249,145.818997 76.7938912,146.800784 C76.7938912,147.291678 76.6351575,147.45531 76.3176902,148.109835 C76.7938912,148.600728 76.6351575,150.727935 75.365288,151.709723 L76.0002228,152.036985 C75.6827554,153.182404 75.365288,154.00056 75.0478206,155.145979 C75.0478206,155.145979 75.2065543,155.473242 75.2065543,155.964136 C75.0478206,157.273186 74.4128858,159.07313 74.2541521,160.709442 C74.2541521,161.69123 73.777951,163.163911 74.0954184,164.30933 C74.2541521,164.800224 73.9366847,165.782012 73.777951,166.272906 C73.6192173,167.091062 73.4604837,168.400112 73.1430163,169.218268 C73.1430163,169.3819 72.9842826,169.545531 72.8255489,169.709162 C72.8255489,169.545531 72.5080815,169.545531 72.5080815,169.545531 C72.3493478,170.200056 72.1906141,170.69095 72.1906141,171.509106 C71.8731467,171.672737 71.2382119,171.836369 70.6032771,172 C69.9683424,171.672737 69.3334076,171.018212 68.5397391,170.200056 C68.6984728,169.545531 68.5397391,168.727375 68.5397391,168.400112 L67.9048043,168.400112 C67.7460706,168.727375 67.5873369,169.3819 67.4286033,170.036425 C67.1111359,169.218268 66.4762011,168.563743 66,168.236481 C68.3810054,159.891286 69.650875,151.709723 71.3969456,143.528159 C71.5556793,143.528159 71.714413,143.69179 72.0318804,143.69179 C71.3969456,142.219109 71.714413,140.582796 72.6668152,140.091902 C72.1906141,139.928271 72.0318804,139.928271 71.714413,139.928271 C71.8731467,139.273746 72.0318804,138.782852 72.3493478,138.291958 C72.8255489,137.637433 72.9842826,136.819277 72.6668152,136.164752 C72.3493478,135.837489 72.8255489,135.182964 72.9842826,135.019333 C73.1430163,134.364808 73.6192173,133.546652 74.0954184,132.564864 C73.6192173,132.892127 73.30175,132.892127 73.1430163,132.892127 C74.2541521,131.255814 75.0478206,129.946764 74.8890869,127.819557 C74.5716195,128.310451 74.5716195,128.474082 74.4128858,128.801345 L74.4128858,127.655926 C75.0478206,127.655926 75.2065543,127.001401 75.5240217,126.346876 L76.4764239,121.110675 C76.6351575,120.292519 76.7938912,119.637994 76.7938912,118.983469 C77.9050271,115.547212 78.6986956,111.947324 79.3336304,108.511067 C79.8098314,106.056598 80.4447662,103.76576 81.079701,101.14766 C81.3971684,99.5113475 82.0321032,97.8750348 82.1908369,96.4023534 C82.8257716,93.6206218 83.143239,90.8388902 83.9369075,87.8935273 C84.0956412,86.2572146 84.5718423,84.6209019 84.8893097,82.820958 C85.5242444,80.6937515 86.1591792,78.5665449 86.6353803,76.4393384 C87.1115814,75.1302883 87.4290488,73.8212381 88.2227173,72.3485567 C88.381451,71.2031378 88.6989183,70.8758753 89.6513205,71.0395065 L90.1275216,71.0395065 C91.5561248,70.8758753 92.1910596,71.8576629 92.6672607,72.8394505 L93.1434618,74.966657 C93.3021955,75.4575508 93.3021955,75.9484446 92.9847281,76.6029697 C92.9847281,76.9302322 92.8259944,77.5847573 92.6672607,78.0756511 C92.0323259,78.4029137 92.0323259,78.7301762 92.508527,79.3847013 C92.3497933,79.5483326 92.3497933,79.8755951 92.1910596,80.0392264 C91.8735922,81.5119078 91.3973912,82.6573267 91.0799238,84.4572707 L90.7624564,84.4572707 C90.6037227,86.0935834 90.1275216,86.7481084 89.8100542,90.5116276 L89.8100542,90.8388902 C89.4925868,91.4934153 89.1751194,92.4752029 89.0163857,93.6206218 C89.4925868,92.8024654 90.444989,92.3115716 90.7624564,91.0025215 C90.7624564,90.8388902 90.6037227,90.6752589 91.0799238,90.6752589 C91.2386575,90.6752589 91.3973912,90.3479964 91.8735922,90.0207338 C91.7148585,90.0207338 91.3973912,90.0207338 91.0799238,89.52984 C91.3973912,89.0389462 91.8735922,88.8753149 92.3497933,88.7116837 C92.6672607,87.8935273 92.6672607,86.9117397 93.9371303,87.2390022 C93.9371303,87.2390022 93.9371303,86.7481084 94.095864,86.4208459 C95.2069998,86.2572146 96.0006683,84.9481645 95.8419346,84.4572707 C96.159402,84.1300081 96.6356031,83.8027456 96.9530705,83.6391143 L96.9530705,82.6573267 L98.5404074,82.6573267 C98.8578748,82.4936954 99.0166085,82.4936954 99.0166085,82.3300642 C98.8578748,81.5119078 99.6515433,81.5119078 99.9690107,81.3482765 C100.921413,80.0392264 102.50875,79.3847013 103.619886,78.7301762 C104.096087,78.0756511 104.731022,77.9120199 105.52469,77.5847573 L105.52469,76.9302322 C104.572288,77.4211261 103.778619,77.4211261 102.984951,77.7483886 C102.191282,77.9120199 101.080147,78.5665449 100.445212,79.22107 C98.8578748,80.3664889 97.2705379,81.6755391 96.0006683,82.820958 L95.6832009,82.820958 C95.5244672,82.820958 95.5244672,82.6573267 95.5244672,82.6573267 C95.8419346,82.4936954 96.159402,82.3300642 96.4768694,81.6755391 C96.6356031,81.5119078 97.1118042,81.1846453 97.1118042,81.021014 C97.2705379,80.3664889 97.2705379,80.2028576 97.5880052,80.0392264 C98.5404074,79.3847013 99.810277,79.22107 100.445212,78.4029137 C101.23888,77.5847573 102.350016,76.9302322 102.984951,76.4393384 C104.889755,75.4575508 106.477092,75.2939196 108.064429,75.2939196 C109.175565,75.2939196 110.604168,75.7848134 111.55657,75.9484446 C112.350239,76.1120759 112.82644,76.4393384 113.937576,76.766601 C114.096309,76.766601 114.255043,76.9302322 114.413777,77.4211261 L114.413777,77.7483886 C114.096309,77.5847573 113.778842,77.5847573 113.302641,77.4211261 L112.82644,77.5847573 C113.778842,77.9120199 114.255043,78.4029137 114.572511,78.5665449 C115.207445,78.7301762 115.84238,79.0574388 116.477315,79.0574388 L116.636049,78.7301762 C116.953516,79.0574388 117.905918,80.0392264 118.540853,81.1846453 C118.85832,81.1846453 118.85832,81.3482765 118.699587,81.6755391 C118.699587,82.4936954 118.85832,83.1482205 118.85832,83.8027456 Z M86.375,102 C86.5,101.086957 86.875,99.9130435 87,99 L86.625,99 C86.5,99.5217391 86.375,100.565217 86.125,101.086957 C86.125,101.478261 86.125,101.869565 86,102 L86.375,102 Z M84.4375,102.981758 C84.4375,102.585407 84.625,101.990879 85,101.198176 C84.625,101.198176 84.4375,101.198176 84.625,101 C84.0625,101.594528 83.5,102.387231 83.5,102.783583 C83.5,103.774462 83.5,104.170813 83.6875,104.765341 C82.9375,104.765341 83.125,105.359869 83.3125,105.954396 C82.75,106.747099 82.5625,107.341627 82.1875,107.737979 C82.5625,108.530682 82.5625,108.728858 82.5625,108.927034 C82.375,108.927034 82.1875,109.12521 82,109.521561 C82.1875,109.719737 82.375,109.917913 82.5625,109.917913 C82.9375,110.116089 83.125,109.917913 83.125,109.719737 C83.3125,108.728858 83.875,107.341627 83.875,106.350748 L84.4375,102.981758 Z M86.5671267,111.656051 C87.2261364,110.496815 87.2261364,110.496815 85.9081169,110 C85.9081169,110.496815 85.4687771,110.66242 85.4687771,110.993631 C85.9081169,110.993631 86.1277868,110.993631 86.3474567,111.159236 C86.1277868,111.324841 85.9081169,111.324841 85.2491072,111.656051 L86.1277868,112.318471 C85.688447,112.318471 85.2491072,112.649682 84.5900974,112.649682 L84.5900974,113.643312 C84.3704275,114.305732 83.9310877,114.968153 83.9310877,115.796178 C83.2720779,117.286624 83.052408,119.10828 82.6130682,120.598726 C81.9540585,122.585987 80.636039,124.573248 80.4163691,126.56051 C79.9770292,128.050955 79.0983496,129.872611 79.5376894,131.694268 L79.3180195,131.859873 C79.0983496,132.687898 78.2196699,134.012739 78,135.33758 C78,135.503185 78.2196699,135.66879 78.6590097,136 C78.8786797,135.66879 79.0983496,135.66879 79.5376894,135.503185 L78.8786797,135.171975 C79.3180195,134.178344 79.7573593,133.681529 80.1966991,132.853503 C80.4163691,131.859873 80.8557089,130.700637 81.5147186,129.541401 C81.5147186,128.713376 81.5147186,127.719745 81.7343885,126.89172 C82.1737284,126.229299 82.6130682,125.235669 82.6130682,124.407643 L81.9540585,124.407643 C82.1737284,124.076433 82.3933983,123.414013 82.6130682,123.248408 C82.8327381,123.082803 82.8327381,122.751592 82.8327381,122.585987 C82.8327381,122.420382 82.8327381,122.089172 82.6130682,122.089172 C83.052408,121.923567 83.7114178,121.757962 84.5900974,121.592357 L84.5900974,121.261146 L82.8327381,121.261146 C83.052408,120.598726 83.2720779,120.101911 83.2720779,119.770701 C83.7114178,119.770701 83.9310877,119.770701 84.3704275,119.936306 C84.1507576,119.10828 83.9310877,118.280255 83.9310877,117.617834 L85.4687771,117.121019 C85.0294373,116.789809 84.5900974,116.624204 84.3704275,116.624204 C85.0294373,116.292994 85.688447,116.127389 85.688447,115.796178 C86.3474567,114.305732 86.3474567,112.815287 86.5671267,111.656051 Z M82.15,129 C82,127.95 83.35,126.9 82.6,126 C82,126.9 81.85,128.55 82.15,129 Z M73,138 C75.7,137.478261 74.8,136.695652 74.8,136.304348 C75.4,136.043478 75.7,135.782609 76,135.652174 C75.7,135.521739 75.7,135.26087 74.5,135 C73.6,136.173913 73.6,137.086957 73,138 Z M82.3,135.15 C82.15,135.15 82.15,135 82,135 C82,135.15 82.15,135.15 82.3,135.15 Z M78.564961,138.857143 C78.714961,138.285714 78.714961,137.714286 78.864961,137 C78.114961,137.428571 77.814961,139.428571 78.114961,140 C78.414961,139.571429 78.414961,139.285714 78.564961,138.857143 Z M73.75,140 C73.75,139.357143 73.9,138.714286 73.9,138.071429 C73.9,137.857143 73.75,137.642857 73.75,137 C73.45,137.214286 73.3,137.214286 73.3,137.214286 C73.15,138.071429 73.15,138.928571 73,140 L73.75,140 Z M75.55,143.222222 C75.55,142.763889 76,142.305556 76,142.152778 C75.7,142 75.4,142 75.25,142 C74.35,145.819444 73.6,149.180556 73,152.847222 C73.15,152.847222 73.3,153 73.3,153 C73.45,152.388889 74.95,152.236111 73.9,151.013889 C74.35,150.708333 74.65,150.555556 74.35,150.097222 C74.05,149.027778 74.35,148.263889 74.8,147.194444 C75.1,147.041667 75.25,146.125 75.4,144.75 L75.25,144.444444 C75.4,144.291667 75.55,143.986111 75.55,143.833333 L75.55,143.222222 Z M158.941787,97.0634482 C158.941787,97.2281287 159.101214,97.3928093 159.101214,97.3928093 C161.17376,96.7340871 162.927453,94.9226012 165,93.7698374 C164.840573,94.0991985 164.840573,94.4285596 164.681147,94.5932401 C164.04344,95.2519623 163.246307,95.9106844 162.6086,96.404726 L159.579493,98.8749341 C158.30408,99.5336563 157.34752,100.192378 156.231534,101.015781 C154.796694,101.839184 153.52128,102.991948 151.927014,103.65067 C150.970454,104.144711 149.854467,104.144711 148.73848,104.309392 C148.100774,104.309392 147.781921,104.474072 147.303641,104.803433 C146.665934,105.132795 145.709374,105.297475 144.912241,105.462156 C143.636827,105.791517 142.520841,106.120878 141.245427,105.956197 C139.651161,105.791517 137.897467,105.462156 136.462628,104.968114 C135.027788,104.474072 134.390081,104.309392 132.795814,102.991948 C132.636388,102.662586 132.158108,102.497906 131.998681,102.333225 C130.882694,101.509823 130.244988,100.521739 129.288428,99.0396146 C128.969574,98.7102536 128.969574,98.7102536 128.650721,97.0634482 C127.853588,95.0872817 128.013014,93.934518 128.013014,92.7817542 C128.172441,89.4881434 128.969574,86.3592132 130.563841,83.230283 C131.201548,82.2421998 131.839254,81.2541165 132.636388,80.2660333 C134.071228,78.4545474 135.506068,76.807742 136.940907,75.1609366 C138.375747,73.6788118 140.129441,72.6907286 142.201987,72.526048 C142.680267,72.526048 143.158547,72.3613675 143.796254,72.196687 C145.390521,71.5379648 146.825361,72.6907286 147.941347,73.3494507 C149.376187,74.0081729 150.6516,74.9962561 151.767587,75.9843393 C153.043,76.807742 153.840134,79.6073112 153.361854,80.9247555 C153.043,81.7481582 152.56472,82.5715608 152.08644,83.0656025 C150.6516,84.7124078 149.21676,86.1945327 147.781921,87.6766575 C147.303641,88.1706991 146.347081,88.3353797 146.187654,88.8294213 C146.028227,89.9821851 144.912241,90.1468656 144.274534,90.4762267 L143.158547,91.1349488 C143.477401,91.1349488 143.636827,91.2996294 143.636827,91.2996294 C143.158547,91.6289904 142.680267,91.793671 142.042561,92.123032 C141.883134,92.2877126 141.883134,92.7817542 141.723707,92.9464347 C140.607721,93.6051569 139.332307,94.0991985 138.375747,94.7579207 C137.897467,94.9226012 137.578614,95.4166428 137.259761,95.7460039 C135.984348,96.404726 135.506068,96.5694066 134.390081,97.2281287 C135.027788,99.2042952 135.346641,99.5336563 136.622054,100.027698 C138.694601,99.8630173 140.767147,100.027698 142.839694,99.6983368 C144.274534,99.5336563 145.709374,98.8749341 147.144214,98.3808925 C148.2602,97.8868509 149.535614,97.2281287 150.811027,96.7340871 C151.60816,96.404726 152.405294,96.404726 153.202427,95.9106844 C154.95612,94.7579207 156.86924,93.7698374 158.463507,92.7817542 L158.941787,92.4523931 L159.101214,92.6170737 C158.941787,92.9464347 158.622934,93.2757958 158.463507,93.4404763 C158.622934,93.6051569 158.78236,93.7698374 158.622934,93.934518 C159.101214,93.934518 159.579493,93.7698374 159.898347,93.6051569 C160.057773,93.7698374 160.057773,93.7698374 159.898347,93.934518 C159.26064,94.4285596 158.463507,95.0872817 157.8258,95.7460039 C158.30408,96.075365 159.101214,96.2400455 159.898347,96.5694066 C159.420067,96.7340871 159.26064,96.8987676 158.941787,97.0634482 Z M136.303612,88.15055 C135.744921,89.2503929 135.372461,90.5335429 135,92 C136.489843,91.0834643 137.420994,90.5335429 138.165916,89.9836214 C138.538376,89.9836214 138.910837,90.1669286 139.097067,89.9836214 C139.655758,89.6170072 140.58691,89.0670857 141.331831,88.3338572 C140.77314,88.3338572 140.58691,88.5171643 140.028219,88.5171643 C141.145601,87.6006286 141.704292,86.5007857 143.007904,86.5007857 C142.635443,87.0507072 142.076752,87.4173215 141.704292,87.9672429 C141.704292,87.9672429 141.704292,88.15055 141.890522,88.15055 C143.566595,87.0507072 145.056438,85.7675572 146.73251,84.6677143 L146.36005,84.3011 C145.987589,84.6677143 145.615128,85.0343286 144.870207,85.4009429 C144.311516,85.7675572 143.752825,86.1341715 143.007904,86.5007857 C143.194134,86.3174786 143.194134,86.1341715 143.194134,85.9508643 C145.056438,84.4844072 146.54628,83.2012572 148.222353,81.5514929 C149.339735,80.6349572 150.084656,79.5351144 150.829578,78.2519644 C151.388269,77.3354287 150.457117,75.6856644 149.712196,76.0522787 C148.036123,76.7855072 146.36005,76.7855072 144.870207,77.8853501 C143.194134,79.1685001 141.518061,80.0850358 140.214449,81.7348001 C138.724606,83.7511786 137.420994,85.9508643 136.303612,88.15055 Z M146.250486,76 C144.501619,76.8888889 143.502267,77.7777778 144.251781,79 C145.001295,78.3333333 146.250486,77.5555556 147,76.8888889 L146.250486,76 Z M170.457831,85.1632949 C169.301205,85.7401735 168.144578,86.1728325 167.180723,86.7497111 L167.180723,86.8939308 C167.180723,86.7497111 167.373494,86.7497111 167.373494,86.7497111 C167.373494,86.8939308 167.566265,87.0381504 167.566265,87.0381504 C167.180723,87.3265897 166.409639,87.7592487 165.445783,88.1919077 L165.638554,88.7687863 C164.86747,89.0572256 164.481928,89.345665 165.060241,89.7783239 C164.289157,90.2109829 163.13253,90.2109829 162.939759,91.2205205 C162.939759,91.2205205 162.939759,91.3647402 162.746988,91.3647402 C161.39759,91.3647402 160.626506,92.3742778 159.662651,92.9511564 C159.084337,93.2395957 158.313253,93.6722547 157.349398,93.960694 C156.963855,94.1049137 156.578313,93.8164744 156.192771,93.6722547 C156,93.3838154 156,93.0953761 156,92.9511564 C156,92.8069368 156.192771,92.6627171 156.192771,92.6627171 C157.927711,92.9511564 159.084337,91.9416188 160.433735,91.3647402 L161.783133,90.7878615 C162.554217,90.6436419 162.939759,90.2109829 162.168675,89.345665 C160.819277,90.2109829 159.084337,90.9320812 157.542169,91.9416188 C157.349398,91.7973991 156.771084,91.6531795 156.192771,91.5089598 C157.542169,90.9320812 160.626506,89.6341043 161.783133,88.047688 C162.168675,87.7592487 164.289157,87.0381504 164.86747,86.6054915 L166.216867,87.0381504 C166.60241,86.6054915 166.987952,86.3170521 167.373494,86.0286128 C167.180723,85.8843932 166.987952,85.8843932 166.60241,85.7401735 L166.795181,85.5959538 C167.373494,85.5959538 167.951807,85.5959538 168.915663,85.4517342 C168.722892,85.1632949 168.53012,85.0190752 168.53012,84.8748556 L169.493976,84.2979769 L169.301205,84.1537573 L168.53012,84.5864162 L168.144578,84.5864162 L171.421687,83 L171.807229,84.0095376 C171.807229,84.0095376 172,84.0095376 172,84.1537573 C171.421687,84.4421966 171.036145,84.8748556 170.457831,85.1632949 Z M155.107143,92 C155,92 155,91.8235294 155,91.8235294 C155.964286,90.7647059 156.928571,90.0588235 158,89 C157.892857,89.8823529 157.25,90.2352941 155.107143,92 Z M153,96 C154.235294,95.1111111 155.117647,94.2222222 156,93.3333333 C155.823529,92.4444444 154.235294,93.3333333 153,96 Z M174.526949,108.929955 C174.36278,108.608942 174.36278,108.287929 174.19861,108.127422 C173.049423,108.287929 174.19861,109.250969 173.706101,109.571982 C172.721083,109.411475 171.736065,107.806409 172.064405,106.522355 C172.556914,103.793742 172.885253,101.225635 173.541932,98.3365142 C174.36278,95.6079006 175.347798,92.7187803 176.004476,89.8296599 C176.496985,87.9035797 176.661155,86.1380062 176.989494,84.211926 C176.989494,84.0514193 176.989494,83.7304059 176.825325,83.7304059 C176.332816,83.2488858 176.496985,82.2858457 176.661155,81.3228056 C176.825325,80.1992588 177.153664,79.8782455 178.138682,80.0387521 C180.272888,80.1992588 181.750415,81.643819 182.899602,83.2488858 C183.063772,83.4093925 183.063772,83.4093925 183.063772,83.5698992 C182.735433,84.8539527 182.571263,85.9774995 182.407093,87.261553 C182.242924,88.3850998 182.242924,89.1876332 181.914584,90.31118 C181.586245,91.4347268 181.093736,92.3977669 180.765397,93.5213137 C180.765397,93.6818204 180.765397,93.8423271 180.601227,94.1633404 C180.765397,94.0028337 180.765397,94.1633404 180.765397,94.0028337 C182.407093,91.5952335 184.21296,89.3481399 186.182995,87.4220597 C187.168013,86.2985129 188.317201,85.1749661 189.630558,84.211926 C190.451407,83.7304059 190.615576,83.7304059 192.257273,83.5698992 C193.57063,83.5698992 193.89897,83.7304059 194.391479,83.8909126 C194.883988,83.8909126 195.212327,84.211926 195.704836,84.693446 C195.212327,84.693446 194.719818,84.8539527 194.391479,84.8539527 L194.391479,85.0144594 C195.704836,85.1749661 196.361515,86.4590195 197.839041,85.4959794 C198.003211,86.2985129 197.839041,87.1010463 198.49572,87.4220597 C198.65989,87.4220597 198.49572,87.9035797 198.49572,88.3850998 C198.988229,89.8296599 199.316568,91.2742201 199.480738,92.7187803 C199.480738,94.0028337 199.316568,95.2868872 199.152399,96.5709407 C199.152399,96.8919541 199.316568,97.3734741 199.152399,97.8549942 C199.316568,98.978541 199.316568,100.262594 199.316568,101.386141 L199.809077,102.991208 C199.809077,103.312221 200.301586,103.793742 200.465756,103.954248 L200.958265,103.954248 C201.122435,103.793742 201.614944,103.633235 204.405828,102.188675 C205.390846,101.867661 206.375864,101.386141 207.196712,100.744115 C208.18173,100.423101 209.166748,99.460061 209.987596,98.978541 C210.480105,98.8180343 210.808445,98.4970209 210.972614,98.3365142 C211.629293,97.6944875 212.614311,97.0524607 213.435159,96.5709407 C213.10682,96.410434 212.94265,96.410434 213.10682,96.2499273 C212.121802,96.8919541 210.972614,97.6944875 209.987596,98.4970209 C209.823427,98.3365142 209.823427,98.3365142 209.659257,98.3365142 C215.733535,93.6818204 220.494455,88.0640864 224.927036,82.4463524 C224.927036,82.4463524 225.091205,82.4463524 224.927036,82.6068591 C224.762866,82.9278725 224.270357,83.4093925 224.106187,83.7304059 C223.942018,84.0514193 223.285339,84.693446 223.777848,85.1749661 C223.777848,85.1749661 223.777848,85.3354728 223.613678,85.4959794 C222.957,85.6564861 222.957,85.6564861 222.464491,86.4590195 L223.285339,86.4590195 C222.79283,86.7800329 222.300321,87.5825663 221.807812,88.2245931 L221.643642,90.31118 L221.807812,90.31118 C221.479473,91.1137134 221.479473,91.7557401 221.151133,92.3977669 C220.822794,93.0397936 220.166116,93.8423271 219.509437,94.3238471 L216.718553,97.5339808 C216.554383,97.8549942 216.554383,98.3365142 215.733535,98.8180343 C215.733535,98.8180343 215.733535,99.1390477 215.897704,99.2995543 C215.733535,99.460061 215.241026,99.460061 215.241026,99.6205677 C214.584347,100.904621 213.27099,101.867661 212.121802,102.991208 C211.136784,104.114755 209.659257,105.238302 208.18173,106.201342 C205.883355,107.806409 203.092471,107.806409 200.629926,108.287929 L200.465756,108.287929 C199.316568,107.806409 198.824059,107.806409 198.003211,106.843369 C196.525684,105.719822 195.212327,104.275262 194.555648,102.188675 C193.7348,99.460061 193.078121,96.410434 193.406461,93.0397936 C193.406461,92.2372602 193.57063,91.1137134 193.57063,90.1506733 C193.242291,89.8296599 192.913952,89.6691532 192.749782,89.1876332 C192.257273,90.9532067 191.600594,91.4347268 190.451407,91.5952335 C190.123067,92.8792869 189.302219,93.6818204 188.153031,94.1633404 C188.317201,95.4473939 187.168013,95.6079006 186.675504,96.410434 C186.511335,96.8919541 185.526317,97.6944875 185.854656,97.6944875 C186.347165,98.8180343 184.869638,98.1760075 185.033808,98.8180343 C184.869638,98.8180343 184.705469,98.8180343 184.541299,98.6575276 C184.705469,99.6205677 183.88462,100.102088 183.227942,100.423101 C183.392111,100.583608 183.556281,100.744115 183.556281,100.904621 C183.392111,101.225635 183.227942,101.225635 183.227942,101.225635 L183.720451,101.707155 C182.735433,103.312221 181.750415,104.756782 180.929566,106.522355 C180.272888,107.324889 179.616209,107.806409 178.795361,107.806409 L178.302852,108.929955 C177.974512,109.090462 177.974512,109.250969 177.810343,109.411475 C177.153664,110.695529 174.36278,109.571982 174.526949,108.929955 Z M181.209302,92 L183.093023,89.3639053 C183.302326,89.3639053 183.093023,89.6035503 183.093023,89.6035503 C182.883721,90.3224852 182.674419,90.8017751 182.255814,91.2810651 L182.465116,91.5207101 C183.302326,91.0414201 183.72093,90.5621302 184.55814,90.0828402 C184.348837,89.6035503 184.139535,89.6035503 183.930233,89.3639053 C184.348837,89.1242604 184.55814,89.1242604 184.55814,88.8846154 C184.976744,88.1656805 185.604651,86.9674556 186.651163,87.4467456 C186.860465,87.4467456 187.069767,86.9674556 187.069767,86.9674556 C186.651163,85.5295858 187.488372,85.0502959 188.116279,84.3313609 C188.325581,84.5710059 188.744186,84.8106509 188.744186,84.5710059 C188.953488,84.3313609 189.372093,83.612426 190,83.1331361 C188.534884,82.8934911 187.488372,82.8934911 186.651163,83.852071 L184.139535,86.9674556 L181,91.5207101 C181,91.5207101 181.209302,91.5207101 181.209302,92 Z M188.214286,90 C188.857143,89.1666667 190.357143,89.5 190.357143,88.1666667 L191,88.1666667 C191,87.5 190.571429,87.3333333 190.357143,87 C190.142857,87.5 188.428571,87.5 189.285714,88.6666667 C188.857143,88.8333333 188.214286,89 188,89 C188,89.5 188,89.6666667 188.214286,90 Z M215.25,92 C215.375,92 215.5,91.875 215.5,91.75 C216.125,91.25 216.5,90.875 217,90.25 C217.375,89.875 217.75,89.625 218,89.125 C218,89.125 217.875,89 217.75,89 C216.75,90 215.875,90.875 215,91.875 C215.125,92 215.125,92 215.25,92 Z M261,7.59450765 C259.375993,7.92023332 260.187996,8.89741034 259.700794,9.71172452 L260.837599,10.200313 C260.837599,10.6889015 260.512798,11.0146272 260.350397,11.5032157 C260.025596,11.3403529 260.025596,11.0146272 259.863195,10.8517644 C259.700794,11.0146272 259.538394,11.0146272 259.375993,11.0146272 C259.700794,11.5032157 260.025596,12.1546671 260.187996,12.6432556 C258.563989,12.6432556 259.051192,14.1090211 258.888791,14.7604724 C258.401589,15.5747866 258.563989,16.5519636 258.239188,17.203415 C258.72639,17.5291407 259.538394,17.8548663 259.538394,18.0177292 C259.051192,18.6691805 258.888791,19.4834947 258.563989,20.7863974 C259.375993,21.7635744 257.751986,22.4150257 257.751986,23.5550656 C257.751986,23.5550656 257.914387,23.3922028 257.914387,23.2293399 L258.239188,23.7179284 C258.563989,24.2065169 258.563989,24.5322426 257.914387,24.6951055 C257.264784,24.8579683 256.939982,25.3465568 256.45278,25.9980081 L257.751986,25.9980081 C256.939982,26.8123223 256.127979,27.9523622 255.803177,28.7666764 C255.478376,29.2552649 255.153575,29.9067162 254.828773,30.2324419 C254.503972,30.7210304 254.828773,31.2096189 254.991174,31.5353446 C255.153575,32.5125216 254.828773,33.4896986 254.503972,34.4668756 C254.341571,34.3040128 254.17917,34.3040128 254.17917,34.3040128 C254.01677,33.9782871 254.01677,33.8154243 253.854369,33.6525614 C253.691968,33.8154243 253.529568,34.3040128 253.367167,34.4668756 L253.854369,34.7926013 L253.854369,34.9554641 C253.204766,34.7926013 252.717564,34.7926013 252.555163,35.9326412 C252.555163,36.2583668 252.067961,36.7469553 251.90556,37.072681 C251.580759,37.2355438 251.580759,37.3984067 251.74316,37.7241324 C251.90556,37.3984067 252.555163,36.9098182 252.879965,36.4212297 C253.042365,37.3984067 252.555163,38.7013094 251.580759,38.8641722 C251.418358,39.027035 250.931156,38.8641722 250.768756,39.027035 C249.307149,41.9585661 248.170344,44.7272343 246.871139,47.1701769 C247.033539,47.4959025 247.033539,47.984491 246.871139,48.1473539 C245.896734,50.2645707 244.435128,51.8931991 243.298323,53.5218275 C243.135922,53.8475531 242.811121,54.6618673 242.161518,54.010416 C241.999117,53.8475531 241.674316,54.1732788 241.187114,54.4990045 C241.674316,54.4990045 241.999117,54.4990045 242.323919,54.6618673 C241.349515,55.96477 240.537511,57.1048099 239.725508,58.5705754 C239.400706,58.2448497 239.238305,58.2448497 239.075905,58.0819869 L238.913504,58.2448497 C238.913504,58.5705754 239.075905,58.8963011 239.075905,59.0591639 C238.751103,59.0591639 238.588703,59.0591639 238.263901,59.2220267 L237.9391,59.2220267 C237.289497,60.5249294 235.340688,60.6877923 235.827891,62.6421463 C235.015887,62.8050091 234.528685,62.6421463 233.554281,62.6421463 C232.904678,63.4564605 234.366284,63.4564605 234.528685,64.5965003 C234.203883,64.4336375 234.041483,64.5965003 234.041483,64.5965003 C233.229479,65.2479517 233.229479,66.0622659 232.742277,66.5508544 L229.494263,69.6452483 C227.707855,71.5996023 225.109444,74.3682705 222.998235,76.1597617 C222.186231,77.4626644 221.374228,80.5570583 221.049426,82.6742751 C220.724625,85.2800805 220.075022,89.6773771 220.237423,92.4460453 C220.399823,96.8433419 221.049426,100.589187 222.348632,103.683581 C222.998235,105.312209 224.459841,107.592289 225.596646,108.080878 C228.195057,109.220917 229.656664,108.080878 232.255075,106.289386 C234.853486,105.149347 233.067079,111.66386 229.656664,112.641037 C227.545455,113.129626 226.083848,113.292488 223.160635,111.989586 C222.348632,111.66386 221.211827,110.686683 220.724625,110.198094 C219.912621,109.220917 219.263019,108.24374 218.288614,107.103701 C217.476611,105.963661 217.151809,104.660758 216.502207,103.194993 C216.015004,101.729227 215.690203,99.9377358 215.365402,98.1462446 C214.878199,94.0746737 214.878199,91.3060055 215.365402,86.5829832 C215.527802,84.4657663 215.527802,82.837138 216.664607,76.3226245 L217.639011,70.9481509 C217.639011,70.2966996 217.639011,69.9709739 217.963813,68.6680712 C218.451015,66.87658 218.613416,66.0622659 219.100618,63.7821861 C219.58782,61.9906949 219.912621,59.7106152 220.724625,57.5933984 C221.374228,55.1504558 222.348632,52.5446504 222.998235,50.2645707 C223.647838,49.1245309 224.13504,47.6587654 224.784643,46.3558627 C225.109444,45.3786857 225.109444,44.4015086 225.759047,43.4243316 C225.921447,43.0986059 226.246249,42.9357431 226.246249,42.6100174 L227.058252,44.8900971 C227.383054,44.075783 227.707855,43.5871945 228.032657,42.9357431 C228.357458,41.4699776 229.331862,39.8413492 229.981465,38.3755837 C230.143866,37.5612695 230.793469,36.2583668 230.631068,35.7697783 C230.306267,34.6297385 230.631068,34.6297385 231.280671,34.4668756 C231.605472,34.4668756 231.605472,34.14115 231.605472,34.14115 C232.255075,32.8382473 232.742277,31.3724817 233.39188,30.2324419 C232.579876,29.9067162 232.092674,29.9067162 231.767873,30.8838932 C231.443071,31.3724817 231.11827,32.0239331 230.955869,32.5125216 C230.631068,32.8382473 230.468667,33.1639729 230.468667,33.3268358 C230.143866,33.1639729 229.819064,33.1639729 229.819064,32.8382473 C230.143866,32.6753844 230.468667,32.5125216 230.631068,32.1867959 C231.11827,31.3724817 231.443071,30.5581676 231.605472,29.9067162 C232.092674,28.7666764 232.417476,27.4637737 232.742277,26.160871 C233.229479,25.3465568 233.879082,24.3693798 234.041483,23.3922028 C234.203883,23.0664771 234.528685,23.0664771 234.691086,22.7407514 C235.503089,22.9036143 235.827891,23.3922028 235.827891,24.3693798 C235.503089,25.3465568 234.691086,25.8351453 234.041483,26.4865967 C233.879082,26.6494595 233.716681,26.9751852 233.554281,27.3009108 C233.879082,27.3009108 233.879082,27.3009108 234.203883,27.4637737 C233.879082,28.7666764 233.879082,28.7666764 233.879082,29.092402 C235.340688,25.8351453 236.802295,23.2293399 238.263901,20.2978089 C237.614298,21.1121231 237.614298,21.1121231 236.152692,21.1121231 C235.827891,21.1121231 235.827891,21.4378487 235.66549,21.4378487 C235.66549,21.1121231 235.66549,20.6235345 235.827891,20.134946 C237.451898,17.3662778 239.075905,13.9461583 241.024713,11.0146272 C242.161518,8.89741034 243.623124,6.78019347 245.084731,5.31442795 C246.546337,4.01152526 248.007944,2.54575973 249.307149,1.24285704 C251.093557,-0.548634159 253.042365,-0.0600456502 255.315975,0.591405695 C255.965578,0.917131367 256.777582,1.24285704 257.264784,1.56858271 C258.076787,1.89430838 258.888791,2.54575973 259.538394,3.19721107 L260.512798,4.01152526 C260.675199,4.17438809 260.675199,4.50011376 260.512798,4.6629766 C260.675199,5.96587929 260.675199,6.78019347 261,7.59450765 Z M230.920455,45.28125 C230.068182,47.625 229.386364,49.96875 228.193182,52.15625 C228.022727,52.625 227.511364,53.09375 227.170455,54.03125 C227,54.96875 227.170455,56.0625 227,57 L231.090909,52.78125 C233.136364,50.4375 235.522727,47.625 237.397727,45.125 C238.761364,43.875 239.954545,42.3125 240.977273,40.90625 C242.340909,39.03125 243.363636,37.15625 244.727273,35.125 C246.261364,32 247.795455,29.34375 249.5,26.0625 C250.522727,23.875 251.886364,21.21875 252.738636,18.40625 C253.931818,15.75 254.613636,13.09375 255.125,10.125 C256.147727,7.625 256.318182,4.8125 257,2.15625 C256.829545,2.15625 256.659091,2.15625 256.318182,2 L255.125,2.9375 C254.954545,3.25 254.784091,3.5625 254.443182,3.875 C252.909091,5.28125 251.204545,6.6875 250.181818,8.40625 C248.647727,10.125 247.113636,11.84375 246.261364,13.875 C245.579545,15.90625 243.875,17.625 242.681818,19.34375 C241.829545,20.90625 240.636364,22.46875 239.954545,24.03125 C239.102273,25.59375 238.25,27.625 237.568182,29.34375 C237.227273,29.96875 236.886364,30.75 236.545455,31.21875 C235.693182,32.625 235.352273,33.875 234.840909,34.96875 C234.329545,36.0625 233.818182,37 233.818182,37.78125 C233.477273,38.71875 233.647727,39.34375 233.306818,40.125 C232.625,41.53125 231.943182,43.71875 230.920455,45.28125 Z M236,15.9859155 C236.54,15.9859155 237.08,15.6760563 237.26,15.8309859 C237.44,15.8309859 237.62,16.4507042 237.8,16.7605634 C237.44,16.6056338 237.08,16.6056338 236.72,16.6056338 L236.72,18 L237.08,18 C237.44,17.5352113 237.44,17.0704225 237.8,16.7605634 C237.98,16.4507042 238.7,15.9859155 239.06,15.5211268 C240.5,13.3521127 242.12,11.6478873 243.74,9.47887324 C243.92,8.70422535 244.64,7.92957746 245,7.46478873 C245,7.30985915 244.82,7 244.82,7 C244.1,7.61971831 243.56,8.23943662 243.02,8.85915493 C242.3,10.2535211 240.86,11.1830986 240.32,12.7323944 C240.14,13.0422535 239.6,13.1971831 239.24,13.5070423 C238.88,13.6619718 238.88,13.8169014 238.7,14.1267606 C238.34,14.5915493 237.8,14.9014085 237.26,15.3661972 L236,15.9859155 Z M255.598945,10.3513514 C255.598945,9.84864865 255.770369,9.01081081 255.598945,8.50810811 C256.284638,7.33513514 256.113215,7.16756757 254.913253,7 C254.913253,8.34054054 255.427522,9.34594595 255.598945,10.3513514 C255.256099,10.8540541 254.913253,11.1891892 254.741829,11.5243243 C254.570406,12.6972973 254.570406,13.8702703 254.22756,15.2108108 C253.884713,16.2162162 253.884713,17.3891892 252.856174,18.227027 C252.513328,18.3945946 252.856174,18.8972973 252.856174,19.2324324 C252.856174,19.5675676 253.027598,19.7351351 253.199021,20.0702703 L252.856174,20.0702703 C252.513328,20.4054054 251.656212,21.0756757 251.656212,21.4108108 C251.827635,22.0810811 251.656212,22.7513514 251.313366,23.4216216 C250.970519,23.7567568 250.970519,24.2594595 250.799096,24.9297297 C250.627673,25.2648649 250.284826,25.6 249.94198,25.7675676 C249.256287,27.6108108 248.570595,29.1189189 248.227748,30.4594595 C247.370632,31.9675676 246.17067,33.4756757 246.513516,35.6540541 C245.999247,34.6486486 245.999247,34.9837838 245.6564,35.6540541 C245.6564,35.8216216 245.484977,36.1567568 245.313554,36.4918919 C244.456438,38.1675676 243.427899,39.8432432 242.570783,41.3513514 C241.199397,43.6972973 239.656589,46.0432432 238.456626,48.2216216 C237.942357,48.7243243 237.770934,49.0594595 237.59951,49.7297297 C237.085241,50.2324324 236.913818,50.9027027 236.399548,51.2378378 C236.228125,51.4054054 236.056702,51.572973 235.885278,51.572973 C235.371009,52.7459459 234.34247,53.7513514 233.485354,54.7567568 C233.313931,55.2594595 232.285391,56.4324324 232.285391,56.7675676 C231.599699,57.9405405 230.742583,58.6108108 230.05689,59.2810811 C229.199774,60.1189189 228.685504,61.2918919 228.171235,62.1297297 C226.457003,63.6378378 225.085617,65.1459459 223.714232,66.8216216 C223.199962,67.4918919 222.685693,68.3297297 222,69 C223.199962,68.6648649 223.885655,67.9945946 224.571348,67.3243243 C225.77131,66.4864865 226.971273,64.9783784 227.999812,63.6378378 C230.228313,61.9621622 231.942545,59.6162162 233.8282,57.9405405 L235.371009,56.0972973 C236.056702,55.2594595 236.742394,53.9189189 237.59951,52.9135135 C238.799473,50.9027027 240.170858,48.8918919 241.542244,46.8810811 C242.227936,46.2108108 243.256476,46.0432432 243.085052,44.7027027 C244.113592,44.3675676 244.456438,43.3621622 244.799284,42.5243243 C245.484977,40.5135135 246.684939,39.0054054 247.542055,36.9945946 C248.056325,36.3243243 248.227748,35.4864865 248.742018,34.8162162 C248.913441,34.3135135 249.084864,33.8108108 249.599134,32.972973 C249.256287,32.8054054 248.913441,32.4702703 248.570595,31.9675676 C249.256287,31.8 249.599134,31.8 249.94198,31.6324324 C249.599134,31.2972973 249.427711,30.9621622 249.256287,30.627027 C249.770557,30.4594595 250.113403,30.627027 250.799096,30.4594595 C250.45625,30.2918919 250.113403,29.9567568 249.770557,29.6216216 C250.45625,29.2864865 251.313366,28.9513514 251.999058,28.4486486 C251.999058,28.2810811 251.999058,28.2810811 251.827635,28.1135135 C251.313366,28.1135135 250.970519,28.1135135 250.627673,27.9459459 C252.684751,26.2702703 253.71329,23.5891892 252.856174,22.5837838 C253.370444,21.5783784 254.056137,20.572973 254.056137,19.5675676 C254.056137,18.3945946 254.22756,17.7243243 255.598945,17.3891892 L254.22756,16.8864865 C254.398983,16.7189189 254.398983,16.5513514 254.741829,16.3837838 L255.598945,16.3837838 C254.741829,15.7135135 254.741829,15.2108108 255.427522,14.0378378 C255.770369,13.0324324 255.427522,11.6918919 255.598945,10.3513514 Z M254,35.1447368 L254,35 C250.769231,38.6184211 247.769231,42.3815789 245,46 L245.230769,46 C245.923077,45.2763158 246.846154,44.4078947 247.076923,43.9736842 C247.769231,43.25 248.230769,42.3815789 248.923077,41.6578947 C249.615385,40.7894737 250.538462,40.3552632 251,39.3421053 C251.692308,38.7631579 252.153846,38.0394737 252.846154,37.1710526 C253.076923,36.7368421 254,36.0131579 254,35.1447368 Z M229,36 C226.871057,36 225.274349,37.4347826 226.338821,39 C227.137175,37.9565217 228.467764,37.0434783 229,36 Z M218.927273,58.5962733 C219.090909,57.6273292 219.581818,56.8198758 220.072727,55.689441 C220.563636,53.4285714 220.890909,51.3291925 222.527273,49.7142857 C222.363636,49.7142857 222.2,49.8757764 221.709091,49.8757764 C222.2,49.2298137 221.709091,47.9378882 222.854545,48.2608696 C223.018182,48.4223602 223.181818,48.0993789 223.181818,48.0993789 C223.345455,47.4534161 223.672727,46.9689441 224,46.484472 L222.854545,46 C219.254545,54.3975155 217.290909,61.826087 215,70.3850932 C215.163636,70.3850932 215,72 215.163636,72 C215.490909,71.0310559 215.327273,69.9006211 215.654545,68.931677 C216.636364,65.7018634 217.945455,62.310559 218.927273,58.5962733 Z M248,46.4615385 L248,46.3461538 L246.961538,46 C246.384615,46.9230769 245.692308,48.0769231 245,49 C246.153846,48.7692308 245.923077,46.8076923 247.884615,47.2692308 L246.846154,46.8076923 C246.846154,46.6923077 246.846154,46.6923077 246.961538,46.6923077 C247.307692,46.5769231 247.538462,46.5769231 248,46.4615385 Z M219,71 C220.666667,67.8378378 221.333333,64.9189189 222,62 C220.333333,64.6756757 219.666667,67.5945946 219,71 Z M224.790855,201.90382 C223.819572,202.064636 222.200766,202.064636 221.067603,201.582189 C216.049305,200.617296 213.135456,198.044248 210.221606,194.02386 C209.574083,192.576521 208.44092,190.646735 207.631517,188.716949 C206.012711,186.304716 205.52707,183.410037 206.498353,180.515358 C206.498353,179.228834 206.498353,178.746388 206.336472,178.263941 C206.822114,175.690893 207.145875,173.600291 207.145875,171.831321 C208.44092,166.363594 210.707247,161.056682 213.621097,156.071401 C216.373067,151.407752 219.448797,147.065733 222.524527,143.045346 C225.438377,139.185774 229.16163,135.647833 232.561122,132.109891 C236.284374,129.054397 240.007627,125.677271 243.89276,122.782592 C245.997207,121.174437 248.263535,119.566282 250.044221,118.279758 C251.824907,116.993234 253.281832,116.510788 254.253115,115.385079 C255.71004,114.581002 257.328846,113.294477 258.46201,112.812031 C260.242696,111.847138 260.080815,110.721429 260.080815,109.27409 C260.404576,107.665935 261.052098,106.379411 260.890218,104.771256 C261.375859,102.359023 261.69962,100.429237 261.861501,98.3386356 C262.670904,94.8006946 263.156545,91.7452 263.318426,88.8505209 C263.156545,87.7248124 263.642187,86.7599194 263.804068,85.7950263 C263.642187,85.3125798 262.994665,85.3125798 262.994665,84.8301333 C262.994665,85.3125798 262.670904,85.4733953 262.670904,85.4733953 C260.242696,86.9207349 258.300129,89.3329674 255.71004,91.5843845 C253.767474,92.388462 252.63431,94.1574325 250.691743,95.1223256 C249.396699,96.0872186 248.587296,97.0521116 247.292252,97.3737426 C246.482849,97.3737426 245.673446,97.8561891 245.187804,97.0521116 L246.320968,96.4088496 C244.540282,96.4088496 245.187804,95.9264031 244.540282,95.1223256 L244.702163,94.6398791 L244.216521,94.6398791 C244.054641,95.1223256 244.054641,95.6047721 243.730879,95.6047721 C243.730879,95.6047721 242.759596,95.4439566 242.921477,95.1223256 C242.435835,94.1574325 241.788313,92.8709085 241.464552,91.9060155 C241.302671,90.1370449 242.597716,89.3329674 242.597716,88.0464434 C243.245238,86.1166574 243.407118,83.3827938 243.730879,81.2921922 C243.89276,80.1664837 244.054641,78.3975132 244.702163,76.9501736 C245.025924,75.9852806 245.025924,75.0203876 244.540282,74.0554946 C244.054641,73.5730481 244.378402,72.608155 244.378402,72.1257085 C245.025924,71.4824465 245.349685,71 246.482849,71 C247.292252,71.321631 247.292252,71.1608155 248.425415,71.8040775 C249.234818,72.286524 250.529863,73.7338636 251.501146,74.5379411 C251.501146,74.5379411 251.824907,75.0203876 251.501146,75.6636496 C251.015504,76.4677271 251.501146,77.9150667 251.015504,79.6840372 C250.691743,80.8097457 250.206101,83.0611628 249.558579,84.9909488 C249.558579,86.2774729 249.396699,86.9207349 248.911057,88.2072589 C249.72046,87.7248124 251.015504,86.9207349 251.339265,86.4382884 C252.79619,85.6342108 253.767474,83.7044248 255.062518,82.7395318 C256.681323,81.7746388 257.652607,80.3272992 259.109532,79.3624062 C261.052098,77.7542512 262.509023,76.1460961 264.45159,75.1812031 C265.422873,74.0554946 265.746634,73.5730481 266.879798,74.2163101 C267.203559,74.8595721 268.174842,74.8595721 268.822365,74.8595721 C269.146126,74.8595721 269.793648,75.1812031 270.117409,75.1812031 L270.117409,75.5028341 L270.44117,76.6285426 C271.574334,77.1109891 270.926812,77.7542512 272.221856,77.7542512 L271.898095,79.5232217 C271.736215,80.6489302 271.250573,83.3827938 271.088692,83.8652403 L271.088692,84.1868713 C271.250573,85.9558419 270.117409,88.5288899 270.27929,89.4937829 C269.793648,90.6194915 269.955529,91.9060155 269.793648,93.031724 C269.793648,93.5141705 269.469887,94.1574325 269.469887,94.1574325 C268.822365,94.6398791 268.660484,95.4439566 268.984245,96.2480341 C269.793648,97.5345581 268.822365,99.1427132 268.984245,100.590053 C268.822365,100.911684 268.012962,102.198208 268.012962,102.519839 C267.689201,103.967178 267.689201,105.092887 267.36544,106.540226 L267.041679,106.861857 C267.36544,107.344304 267.851081,107.344304 268.174842,106.861857 C271.574334,104.932071 274.326303,103.645547 276.592631,101.715761 C278.535198,100.750868 279.3446,100.268422 281.772809,98.9818977 L285.01042,97.5345581 C286.305464,97.3737426 290.028717,94.8006946 290.676239,94.8006946 L291,96.7304806 C290.190597,98.0170046 288.733672,99.6251597 288.409911,100.268422 C287.92427,100.590053 287.114867,101.554946 286.791106,101.554946 C285.657942,102.359023 284.524778,102.519839 283.229734,103.806363 L279.830242,105.736149 L280.315884,106.05778 C279.18272,106.540226 278.535198,108.470012 277.240153,107.665935 C275.783228,108.470012 274.650064,109.27409 273.840662,109.917352 L274.326303,110.560614 C274.164423,110.721429 273.516901,110.882245 272.707498,111.04306 C272.383737,111.203876 272.383737,110.882245 270.44117,112.168769 C270.117409,112.329584 270.117409,112.812031 269.631767,113.294477 C269.308006,113.294477 269.308006,112.812031 269.308006,112.812031 L268.336723,112.972846 C268.012962,114.098555 267.689201,115.063448 266.717918,116.028341 C266.232276,116.349972 266.394156,117.797312 265.908515,117.958127 C265.746634,118.601389 265.422873,118.92302 265.422873,119.566282 L265.746634,119.566282 C265.422873,119.566282 264.775351,119.727098 264.289709,119.727098 C265.908515,121.656884 264.937231,123.747485 264.45159,126.320533 C264.127829,125.516456 264.127829,124.873194 263.642187,124.551563 L263.642187,126.320533 L264.45159,126.320533 C264.45159,126.963795 264.289709,126.963795 262.994665,127.124611 L263.804068,127.607057 C264.45159,128.089504 264.45159,128.411135 264.289709,129.536843 C264.289709,130.01929 263.804068,130.501736 263.804068,130.984183 C263.965948,131.949076 263.965948,132.913969 261.861501,133.074784 C263.318426,134.039677 262.994665,135.647833 262.832784,136.612726 C262.509023,137.89925 262.185262,138.542512 261.052098,139.66822 C262.670904,140.472298 262.185262,143.206161 261.052098,144.010239 C261.375859,145.135947 261.052098,145.779209 260.242696,146.422471 C259.595173,146.10084 259.271412,145.779209 258.62389,145.296763 C259.595173,144.33187 258.300129,142.562899 259.433293,142.562899 C259.433293,142.562899 259.109532,142.241268 259.109532,141.758822 C259.595173,141.11556 259.271412,140.311482 260.080815,139.346589 C260.890218,138.060065 260.566457,136.612726 260.890218,135.004571 C260.890218,134.039677 261.375859,132.431522 261.69962,131.78826 C261.69962,130.180105 261.69962,129.054397 262.185262,127.607057 C262.023382,127.124611 262.347143,126.320533 262.347143,125.677271 C262.347143,124.551563 262.185262,123.747485 262.832784,122.621777 L262.832784,121.978515 C263.642187,121.013622 263.642187,120.691991 263.480307,119.727098 C263.480307,118.92302 263.965948,118.92302 263.965948,118.601389 C263.318426,118.601389 263.318426,118.601389 263.480307,118.118943 C262.670904,119.083836 262.185262,119.727098 262.347143,120.852806 C261.861501,122.13933 262.023382,124.069116 261.53774,125.677271 C261.69962,126.642164 261.213979,127.607057 261.213979,128.57195 C260.728337,130.180105 260.890218,132.109891 260.566457,134.039677 C259.918934,136.130279 259.433293,138.060065 258.947651,140.311482 C258.947651,140.633113 259.109532,141.11556 259.109532,141.758822 C258.62389,143.366977 258.46201,144.010239 257.490726,145.296763 C257.166965,145.296763 256.195682,144.492685 255.386279,144.492685 C256.357562,145.940025 255.871921,147.226549 255.54816,147.226549 L255.54816,148.834704 C255.54816,148.834704 254.900637,148.834704 254.414996,149.31715 C254.414996,149.31715 253.767474,149.31715 253.605593,149.799597 L253.929354,149.799597 C253.929354,149.799597 254.576876,149.799597 255.224399,149.638781 C255.224399,150.121228 255.062518,150.603674 254.576876,151.246936 C254.576876,152.211829 253.929354,153.337538 253.929354,154.463246 C253.605593,154.784877 253.119951,155.267324 253.281832,155.74977 L253.119951,156.232217 C253.119951,156.553848 253.119951,158.162003 252.310549,158.162003 L252.958071,158.483634 C252.310549,159.287712 252.310549,160.41342 251.663026,160.41342 L251.663026,161.056682 C251.339265,162.182391 251.339265,163.468915 251.015504,164.112177 C250.853624,164.916254 249.88234,164.916254 249.72046,165.237885 C249.72046,165.237885 251.824907,165.237885 249.88234,166.363594 C249.88234,167.489302 249.72046,167.810933 248.911057,168.936642 C248.911057,169.740719 248.101654,172.313767 246.80661,173.117845 C247.939774,173.439476 247.130371,173.761107 246.80661,174.404369 C245.835327,176.977417 244.864043,179.38965 243.568999,181.962698 C243.407118,182.284329 242.921477,183.088406 242.921477,183.570853 C242.597716,183.892484 242.759596,184.535746 242.759596,184.535746 C243.083357,184.535746 243.730879,184.535746 244.054641,184.37493 C244.054641,183.892484 244.054641,183.892484 243.568999,183.570853 L244.540282,183.570853 L244.540282,182.284329 L244.864043,182.284329 C244.864043,182.927591 245.511566,182.927591 245.511566,183.410037 C245.025924,183.892484 244.540282,183.892484 244.540282,184.37493 C244.054641,184.37493 244.216521,185.018192 244.216521,185.018192 C243.730879,185.018192 243.568999,185.500639 243.083357,185.500639 L242.759596,185.018192 C242.112074,185.500639 241.464552,185.983085 241.140791,186.626347 C240.331388,187.430425 239.521985,189.199395 238.874463,190.485919 C238.712582,191.289997 238.388821,191.289997 238.388821,191.289997 C237.255657,191.611628 237.417538,192.25489 238.388821,193.058967 C237.579419,193.380598 236.931896,193.541414 235.798733,194.184676 C236.931896,194.827938 236.931896,195.310384 237.417538,195.149569 L237.417538,194.184676 C237.741299,194.184676 237.90318,193.380598 238.712582,193.380598 L238.550702,194.184676 C238.874463,194.184676 239.360105,194.827938 239.360105,194.827938 C238.874463,195.149569 238.874463,195.4712 237.90318,195.953646 C237.741299,196.596908 236.608135,195.953646 235.474971,195.953646 L235.15121,196.114462 C235.15121,196.114462 234.827449,196.114462 234.018046,196.757724 C234.018046,196.757724 233.856166,197.400986 234.665569,197.24017 L234.018046,197.883432 L234.98933,197.883432 C234.98933,198.205063 235.636852,198.205063 235.960613,198.205063 C234.665569,198.68751 233.694285,199.169957 232.23736,199.652403 C232.884883,200.938927 231.589838,200.13485 231.266077,200.938927 C229.647272,202.225451 226.733422,201.421374 224.790855,201.90382 Z M261.045283,83 C261.045283,82.7096774 261.045283,82.7096774 261.350943,82.516129 C261.350943,82.7096774 261.758491,82.7096774 262.064151,82.6129032 C262.166038,82.4193548 262.267925,81.7419355 263.083019,81.9354839 C263.083019,81.9354839 263.388679,81.9354839 263.388679,81.7419355 C263.796226,81.4516129 263.796226,80.5806452 264,80.3870968 C264,80.3870968 264,80 263.898113,80 C263.388679,80.3870968 263.490566,81.1612903 262.879245,81.4516129 C262.573585,81.7419355 262.573585,81.7419355 262.166038,81.4516129 C262.064151,81.4516129 261.656604,81.4516129 261.45283,81.8387097 C261.14717,81.8387097 261.045283,82.516129 261.045283,82.516129 C260.943396,82.6129032 261.045283,82.9032258 261.045283,83 Z M257.328457,84.2306125 C261.089429,83.9119535 257.328457,82.6373178 257.328457,82 C257.328457,82.6373178 256.644644,82.6373178 256.98655,83.9119535 C255.618924,84.5492714 255.618924,85.8239071 257.328457,84.2306125 Z M261,112 C262.5,111.375 262.909091,110.4375 262.363636,109.65625 C262.363636,108.40625 263.590909,107 262.636364,105.59375 C263.045455,104.1875 263.045455,102.3125 263.318182,100.90625 C263.318182,99.8125 263.590909,98.40625 264,97.15625 C264,96.0625 263.863636,94.65625 263.863636,93.09375 L263.863636,92 C263.454545,93.09375 263.454545,94.65625 263.181818,95.4375 C262.772727,98.40625 262.5,101.21875 262.227273,104.1875 L261.954545,104.8125 C261.954545,105.125 262.227273,105.59375 261.818182,106.21875 C261.272727,106.6875 261.818182,107 262.090909,107.78125 L261.954545,108.09375 C261.409091,109.03125 261.545455,110.4375 261,112 Z M266.851064,113 C273.319149,109.629032 277.06383,106.080645 282,103.241935 C281.659574,102.532258 281.659574,102.532258 281.659574,102 C279.446809,103.596774 275.87234,105.016129 273.489362,106.612903 C271.276596,107.677419 268.893617,111.048387 266,111.758065 C266.680851,112.467742 266.851064,113 266.851064,113 Z M263.042,106 C263.642,104.5 263.642,103.9 263.192,103 C263.192,103 262.892,103.9 263.042,106 Z M263.023872,109 L263.773872,109 C263.923872,107.875 263.473872,106.5625 263.923872,106 L263.623872,106 C263.473872,106.5625 262.873872,107.875 263.023872,109 Z M258.077164,112.9 C258.077164,112.45 259.376202,112.45 261,112 C258.401924,112.15 257.752405,112.15 258.077164,112.9 Z M208.163077,183 C208.815385,182.195122 208.978462,181.873171 208.652308,181.229268 C208.652308,179.941463 209.304615,178.97561 209.630769,177.526829 C209.630769,176.239024 209.630769,174.95122 210.283077,173.502439 C210.283077,172.214634 210.935385,171.570732 211.587692,170.282927 C212.24,168.995122 213.218462,166.741463 214.033846,164.970732 C215.012308,164.165854 214.686154,163.682927 215.012308,162.556098 C215.664615,162.234146 216.643077,161.590244 216.643077,160.62439 C216.643077,160.141463 216.643077,160.141463 216.969231,160.141463 C217.458462,159.658537 218.6,159.17561 218.763077,158.209756 C218.436923,157.243902 218.926154,157.243902 219.415385,157.243902 C219.415385,156.6 219.741538,156.439024 219.741538,156.439024 C221.046154,156.439024 219.741538,155.956098 220.556923,155.634146 C220.556923,155.634146 221.046154,154.990244 220.883077,154.507317 C221.861538,153.541463 222.513846,152.414634 222.84,151.770732 C223.655385,150.321951 225.123077,149.195122 226.264615,147.907317 C226.753846,146.941463 227.569231,145.97561 228.547692,144.84878 L228.547692,144.204878 C229.2,143.882927 229.852308,143.882927 230.178462,143.4 C230.178462,143.078049 230.504615,143.078049 230.504615,142.273171 C231.646154,141.629268 232.298462,141.307317 232.950769,140.341463 C234.255385,138.409756 236.375385,137.282927 237.843077,135.512195 C238.821538,135.029268 239.8,133.902439 240.615385,133.580488 C241.430769,132.292683 242.083077,131.970732 242.572308,131.487805 C242.572308,131.487805 243.224615,131.487805 243.876923,131.004878 C244.203077,129.556098 246.323077,129.395122 247.301538,127.785366 C248.116923,126.819512 249.258462,126.014634 250.073846,125.692683 C251.378462,124.726829 253.335385,123.278049 254.476923,121.990244 C256.76,120.702439 257.738462,119.253659 259.695385,118.287805 C260.510769,117.804878 260.510769,117.482927 261,117 L260.347692,117 C259.532308,117.482927 259.043077,117.804878 257.738462,118.44878 C255.944615,119.414634 253.987692,121.02439 252.030769,122.795122 C250.073846,123.760976 248.116923,125.209756 245.996923,126.980488 C243.224615,128.912195 240.289231,131.487805 237.353846,134.063415 C234.418462,136.639024 231.972308,139.37561 229.036923,141.629268 C227.243077,143.882927 225.612308,146.458537 223.655385,148.390244 C223.003077,149.678049 221.698462,150.321951 221.209231,152.092683 C220.393846,153.058537 219.741538,154.02439 218.926154,155.634146 C217.132308,158.209756 215.501538,160.62439 214.033846,163.360976 C212.892308,164.970732 212.403077,166.902439 211.261538,168.35122 C210.283077,170.282927 209.793846,172.214634 208.978462,174.468293 C208.652308,175.756098 208.489231,177.204878 208,178.170732 C208.163077,179.297561 208.163077,180.907317 208.163077,182.195122 L208.163077,183 Z M216.951049,194.106473 C219.202797,195.400648 221.937063,195.238876 224.34965,193.944701 C227.083916,193.459385 229.818182,191.194578 231.909091,189.253315 C234.321678,186.826736 237.055944,184.238385 238.020979,181.164718 C239.629371,177.92928 241.076923,175.502701 242.524476,172.752578 C243.328671,170.811315 243.65035,168.870052 244.615385,166.928789 C246.384615,161.266771 248.958042,155.604754 250.727273,149.942736 C251.20979,148.001473 251.370629,146.06021 252.174825,143.633631 L252.979021,143.148315 C252.979021,143.148315 252.818182,142.663 253.461538,142.663 L252.174825,142.663 C252.174825,141.692368 252.979021,141.368824 252.818182,141.04528 C253.300699,137.971614 253.783217,135.221491 254.587413,132.309596 C254.748252,129.074158 255.391608,124.868088 256.517483,121.309105 C256.517483,120.176702 256.517483,118.882526 257,117.911895 C256.034965,118.235439 255.230769,118.235439 255.230769,119.044298 C254.426573,120.338474 253.461538,121.470877 252.174825,121.470877 L252.174825,121.956193 C251.370629,122.441509 250.727273,123.088596 250.405594,123.088596 C249.923077,123.735684 248.958042,124.059228 248.314685,124.706316 C247.188811,126.162263 245.41958,127.779982 243.167832,128.265298 C243.167832,128.265298 242.685315,128.265298 242.685315,128.750614 C242.041958,129.721245 241.559441,130.853649 239.79021,130.853649 C238.986014,130.853649 238.342657,131.015421 237.377622,131.015421 C238.020979,130.368333 238.020979,129.883017 238.020979,129.883017 C239.468531,128.912386 240.111888,127.456438 241.881119,126.647579 C243.167832,125.838719 244.132867,125.353403 245.41958,123.897456 C245.741259,123.897456 245.902098,123.250368 245.902098,123.250368 C246.706294,122.603281 246.706294,122.603281 247.188811,122.603281 C248.475524,121.632649 250.244755,120.500246 251.370629,119.529614 C252.496503,118.39721 254.104895,117.588351 254.748252,116.294175 C256.034965,116.294175 256.356643,115.970632 256.839161,115.323544 L257,115 C256.356643,115.323544 256.034965,115.323544 255.06993,115.970632 C252.174825,118.073667 248.797203,120.500246 245.58042,122.603281 C245.258741,123.250368 245.258741,123.250368 245.41958,123.897456 L244.937063,123.897456 C242.685315,125.353403 240.433566,126.971123 238.181818,128.912386 C236.412587,130.530105 234.482517,132.471368 232.552448,134.736175 C231.265734,135.706807 230.13986,136.83921 229.496503,137.971614 C228.531469,137.971614 228.692308,138.295158 228.20979,138.780473 C227.888112,139.427561 227.405594,139.912877 226.923077,140.559965 C227.888112,140.559965 227.888112,139.912877 228.20979,138.780473 L229.657343,138.295158 C230.622378,136.83921 232.874126,135.383263 234.160839,133.765544 C235.286713,132.471368 235.608392,132.471368 235.608392,133.765544 C236.412587,134.089087 236.412587,133.765544 237.055944,132.794912 C237.538462,131.986052 238.020979,131.015421 238.986014,131.662509 C239.629371,131.662509 239.629371,130.853649 239.79021,130.853649 C241.076923,131.500737 239.629371,131.986052 239.951049,132.309596 C239.79021,132.309596 239.307692,132.309596 238.503497,132.794912 C238.181818,132.794912 238.020979,133.603772 237.538462,134.089087 C237.055944,134.089087 236.412587,134.574403 236.573427,134.897947 C235.286713,135.868579 234.160839,137.809842 232.552448,138.133386 L231.748252,138.618701 L232.552448,138.618701 C232.391608,139.265789 231.587413,139.265789 231.748252,139.751105 C231.426573,140.721737 230.461538,141.368824 229.979021,141.692368 C229.979021,142.177684 229.657343,142.663 228.692308,142.663 C228.370629,143.957175 227.727273,143.957175 227.566434,145.413122 C227.566434,146.06021 227.083916,146.06021 226.601399,146.06021 C225.475524,148.001473 223.545455,149.457421 222.58042,151.722228 C222.258741,152.531087 221.293706,154.148807 220.972028,154.957666 C220.65035,155.766526 219.846154,157.060701 219.041958,156.737157 L218.559441,157.060701 C219.041958,157.060701 219.041958,157.707789 219.524476,157.707789 C219.041958,158.031333 218.72028,158.678421 217.916084,159.810824 C216.951049,160.29614 217.111888,161.752087 215.986014,162.399175 C215.181818,163.531578 215.020979,164.825754 214.86014,165.958157 C214.055944,166.928789 213.895105,168.384736 213.412587,169.51714 C213.412587,170.164227 213.251748,171.943719 212.447552,172.752578 C211.482517,175.017385 211.643357,176.796876 211.643357,178.73814 C211.643357,180.517631 211.965035,181.973578 211.804196,183.591297 L212.608392,184.076613 C211.804196,184.076613 211.482517,184.238385 211,184.400157 C211.643357,185.047245 211.643357,185.047245 211.965035,185.047245 C211.643357,185.370789 211.643357,185.370789 211.160839,185.370789 C211.482517,185.856104 211.965035,185.856104 211.965035,186.503192 C212.608392,186.34142 212.608392,186.34142 212.608392,187.15028 C213.090909,187.473824 213.251748,187.797368 213.895105,188.282683 C213.895105,189.576859 214.055944,190.385718 214.699301,190.871034 C214.699301,191.679894 215.020979,192.488753 215.986014,192.974069 C215.986014,192.974069 215.986014,193.297613 216.146853,193.782929 L216.468531,193.782929 L216.951049,194.106473 Z M258.022609,148 L258.789565,148 C259.30087,147.5 259.812174,147.166667 259.812174,146.333333 C261.090435,146 261.090435,145.5 261.346087,144.833333 C259.556522,144.333333 259.556522,144.333333 261.346087,143.333333 C261.090435,143 259.812174,141.666667 261.346087,141.333333 C261.857391,140.166667 261.857391,139.333333 261.857391,138.166667 C262.368696,137.666667 262.368696,137.333333 262.368696,136.5 C262.624348,136 262.624348,135.666667 262.624348,135.666667 C262.368696,135.166667 263.391304,134.5 263.391304,134.5 C263.391304,134.5 264.413913,133.833333 263.391304,133.5 C263.135652,132.5 264.413913,131.833333 264.158261,131 C264.925217,129.833333 265.947826,129.666667 264.669565,128.166667 C264.669565,127.833333 264.669565,127.166667 265.692174,126.833333 L265.436522,126 C265.436522,124.833333 266.203478,123.833333 265.947826,122.666667 C265.947826,122 265.18087,122 265.18087,122 C265.18087,122.666667 264.413913,123.333333 264.413913,123.333333 C264.669565,123.833333 264.669565,124 264.413913,124.833333 C264.413913,125.666667 263.902609,126.166667 264.413913,126.833333 C264.158261,127.166667 264.158261,127.833333 262.88,128.166667 C263.391304,129.666667 261.857391,130.5 262.113043,131.833333 C261.601739,132.5 262.113043,133.5 261.601739,134.5 C260.834783,135.666667 261.346087,136.5 261.346087,137.666667 C261.346087,138.666667 261.090435,138.666667 259.556522,138.666667 C259.30087,139.333333 260.834783,139.666667 260.834783,139.666667 C259.30087,140.666667 259.556522,142.333333 259.045217,143.5 C259.30087,145 258.533913,145 257,145 C257.255652,145 258.022609,145.666667 258.278261,146 C258.278261,146.5 258.278261,147.166667 257.766957,147.5 L258.022609,148 Z M254,122 C255.071429,120.909091 255.928571,120.363636 257,119 L256.142857,119 C255.928571,120.363636 254.642857,120.909091 254,122 Z M245,133 C245.818182,132.1 247.454545,131.2 248,130 C246.636364,131.2 245.818182,132.1 245,133 Z M234,140 C235.5,139.5 236.785714,138.75 237,137 C235.285714,137.25 234.857143,139.5 234,140 Z M229.9,143 C230.8,143 230.5,142 232,142 L232,140 C230.5,141 229.9,142 229,142 C229.6,143 229.9,143 229.9,143 Z M226,149 C226.923077,148.0625 227.384615,147.125 229,146 C227.384615,146 226.230769,147.125 226,149 Z M222,147 C222,147 221.53125,147 221.4375,147.391304 C220.96875,149.152174 220.40625,150.717391 219.84375,151.891304 C219.5625,153.26087 219.28125,154.434783 219,156 C219.28125,155.021739 219.28125,155.021739 219.65625,154.434783 C219.9375,153.26087 220.125,151.891304 220.6875,151.5 C221.34375,150.130435 221.53125,149.152174 222,147 Z M258,149 C258,148.368421 259,148.052632 259.75,147.263158 C259.75,147.263158 259.5,146.789474 260.25,146.473684 C260.25,146.473684 260.25,146.157895 260.75,146 C260.75,146 261,146.473684 261,146.789474 C260.75,147.263158 260.5,148.052632 259.75,148.842105 C259.75,148.842105 259,148.842105 258,149 Z M259.352684,159 C258.869583,159 258.386481,159 258,158.56 C258.772962,157.386667 258.193241,155.773333 258.966203,154.453333 C259.062823,153.866667 258.869583,153.426667 258.869583,153.133333 C258.869583,153.133333 258.676342,153.133333 258.676342,153.573333 L258.289861,153.573333 L258.289861,153.28 C258.09662,152.693333 258.09662,152.693333 258.09662,152.106667 C258.289861,151.52 258.772962,151.226667 258.869583,150.933333 C258.966203,151.226667 258.966203,151.52 258.966203,151.52 C258.869583,152.106667 258.869583,152.693333 259.256064,153.133333 C259.159443,151.96 259.449304,151.226667 259.352684,149.906667 C259.352684,149.613333 259.449304,148.88 259.352684,148.44 C259.835785,148.44 259.932406,148 260.512127,148 C260.318887,148.293333 260.415507,148.88 260.318887,149.466667 C260.318887,149.466667 260.608748,148.88 260.995229,148.88 C260.995229,150.346667 261.091849,151.373333 260.415507,152.546667 C260.415507,153.133333 260.125646,153.426667 260.125646,153.426667 C260.125646,154.453333 259.932406,155.333333 259.932406,156.36 L259.256064,156.36 C259.256064,156.36 259.449304,156.653333 259.642545,156.506667 C259.352684,157.093333 258.966203,157.386667 258.772962,158.266667 L259.062823,158.266667 L259.352684,157.386667 L259.352684,159 Z M226,147 C227.090909,147 227.909091,146.571429 229,146.571429 C228.727273,146.285714 228.727273,146.285714 227.636364,146 C227.363636,146.285714 227.363636,146.714286 226,147 Z M255.151946,163 C254.424401,163 254.060629,163 254.242515,162.513514 C254.242515,162.027027 253.696856,161.297297 254.242515,160.081081 C254.060629,159.594595 254.242515,158.621622 254.242515,158.621622 C254.97006,158.135135 254.97006,158.135135 255.515719,157.162162 L254.97006,157.405405 L254.788174,156.675676 C255.515719,155.702703 256.061377,155.216216 256.42515,154 C256.42515,154 257.152695,154 256.970808,154.972973 C256.243263,157.162162 255.515719,160.081081 255.151946,163 Z M211,169 L211.878049,169 C211.658537,167.511628 214.512195,167.325581 213.414634,166.023256 C214.512195,164.72093 213.414634,162.488372 216.04878,162.488372 C214.292683,161.372093 214.292683,163.418605 213.195122,164.162791 C214.292683,159.511628 218.243902,157.093023 220,153 L219.341463,153 C217.804878,154.860465 215.829268,156.348837 214.731707,158.395349 C213.414634,160.627907 212.097561,162.860465 211.878049,166.023256 C210.780488,166.581395 211.219512,167.511628 211,169 Z M255.196116,165 C254.604659,164.4 254.368076,164.4 254.013202,164.4 C254.131494,164 254.486368,164 254.486368,164 C254.131494,163.2 253.658328,162.8 254.368076,162.8 C254.604659,162.2 254.604659,161.6 254.604659,160.6 C255.196116,159.6 255.077824,158.4 255.432698,157 C255.55099,156.2 255.787572,156.2 255.787572,156.2 C256.024155,156.2 256.615612,156.2 256.852194,156 C257.088777,157 257.088777,157.4 256.49732,157.4 C256.024155,158.4 255.432698,158.4 255.432698,159.2 L256.024155,159.2 C256.49732,159.2 256.733903,159.2 256.49732,159.4 C256.615612,160 256.49732,160.6 256.024155,161.4 C255.787572,162.8 255.669281,164 255.196116,165 Z M220,159 C220.45,157.660348 220.75,157.124487 220.75,156.320696 C220.6,155.516905 220,156.320696 220,157.660348 L220,159 Z M218,166 C219.732051,165.5 221.464102,165.5 220.886751,163 C219.443376,163.5 220.020726,164.5 218,166 Z M254,166 L257,163.064947 C254,162.839174 254.333333,163.064947 254,166 Z M249.272727,168 C249.272727,168 249,167.55 249,166.95 C249,166.05 249.545455,165.75 252,165 C250.636364,166.05 250.909091,166.95 249.545455,167.55 C249.545455,167.55 249.818182,168 249.272727,168 Z M251.825,171.928427 C251.15,171.928427 249.8,171.928427 248.675,171.114981 L249.8,170.301536 C248.45,169.894814 248.45,169.894814 248,169.894814 C249.8,169.28473 250.25,168.471285 251.375,167.861201 C251.825,168.471285 251.6,169.081369 251.6,169.081369 C252.275,167.861201 252.275,167.454478 252.725,165.217504 C252.05,166.03095 251.375,166.03095 250.7,166.03095 C251.6,164.810782 252.275,164.810782 253.85,164.810782 L253.625,164.200698 C254.3,162.777169 255.425,162.777169 257,163.387253 L257,163.997337 C256.1,165.827588 254.975,167.65784 254.525,170.098175 C253.85,170.91162 253.175,172.335149 251.825,171.928427 Z M208.46889,181 C207.805002,179.682927 207.805002,175.731707 208.734445,172 L209,172.878049 C208.46889,173.756098 208.336112,175.731707 208.336112,176.609756 C209,178.146341 208.867222,179.682927 208.46889,181 Z M238,190.811955 L238.97561,189.908981 C239.756098,189.457494 239.756098,189.006007 240.536585,188.404025 C240.926829,187.802042 242.097561,187.200059 242.682927,186.598077 L243.268293,185.996094 C243.073171,185.394112 243.073171,184.942625 243.073171,184.942625 L241.121951,184.942625 C241.902439,184.792129 241.902439,184.190147 242.487805,183.73866 C242.682927,184.190147 243.073171,184.190147 243.658537,184.792129 C246.585366,181.782217 249.121951,178.471312 250.097561,175.009913 C250.292683,174.257435 251.268293,173.203965 251.658537,172.601983 C251.853659,172.300991 252.439024,172.300991 253.02439,172 C253.804878,172.300991 253.804878,172.300991 254,172.601983 C253.609756,173.053469 253.609756,174.106939 252.243902,173.203965 C252.243902,174.106939 252.634146,174.708921 251.853659,175.009913 C253.02439,175.611895 252.439024,175.912887 251.268293,176.063382 C250.487805,176.514869 250.097561,176.514869 250.292683,177.568339 C250.487805,176.81586 251.268293,176.81586 251.853659,176.81586 C250.487805,178.320817 250.292683,179.675278 249.121951,181.33073 L248.341463,181.33073 L247.756098,181.782217 C248.536585,183.136677 247.365854,184.039651 246.780488,184.942625 C245.609756,185.845599 244.439024,187.049564 243.268293,187.802042 L240.926829,190.360468 C240.731707,191.112946 239.170732,191.112946 238,190.811955 Z M249,172.878037 C249.9,172.878037 250.5,172.428037 252,172.278037 C250.2,171.678037 249,172.128037 249,172.878037 Z M212,175 C212.45,174.307692 212.45,173.384615 212.6,172 C212,173.384615 212,173.846154 212,175 Z M245,178.828579 C245.5,177.967707 246.25,177.229817 247.25,176 L247.75,176 C248,176.368945 248,176.368945 248,176.614908 C247.75,177.47578 247.25,177.844725 246.5,178.705597 C246.25,179.074542 245.75,179.074542 245,178.828579 Z M242,184 C242.3,183 242.3,182.5 242.9,181.5 C242.9,181.5 243.05,181 242.45,181 C242.3,182.5 242,183 242,184 Z M208,184 C208.375,183.777778 209,183.777778 209,183.777778 C208.875,183.333333 209,183 208.875,182.555556 L208.875,182.222222 C208.625,182 208.5,181.333333 208.625,181 C208.25,182 208.375,182.555556 208,184 Z M227.047297,199 C227.385135,199 227.216216,198.142857 227.722973,197.928571 C229.243243,199 234.986486,193.642857 234.986486,191.285714 C235.662162,191.285714 235.662162,191.285714 235.662162,191.714286 C235.662162,191.285714 235.662162,191.285714 236,191.285714 C235.493243,190.428571 235.493243,190.428571 234.817568,190 L234.47973,190.642857 C233.297297,191.285714 233.128378,192.785714 232.452703,192.785714 C231.777027,194.714286 230.932432,195.142857 229.75,196.214286 C229.412162,197.071429 228.060811,197.071429 227.216216,197.714286 L227.216216,197.071429 C227.216216,197.714286 226.878378,198.142857 227.047297,199 Z M235,199.6 C235.947368,199.6 237.052632,199.15 238,199 L237.842105,199.6 C236.894737,200.05 235.947368,199.6 235,199.6 Z M222,199 C222.818182,199.45 223.909091,199.75 225,199 L222,199 Z" id="Openly" fill="#ffffff"></path>
    </g>
</svg>