<svg version="1.1" id="Layer_1" xmlns="http://www.w3.org/2000/svg" x="0" y="0" viewBox="0 0 224 64" xml:space="preserve"><style>.st0{fill:#fff}</style><path class="st0" d="M89.23 23.3h-.3l-.37-6.28H78.27c.15 2.93.3 6.21.3 11.24v22.9h10.59V33.85c0-.84.07-1.68.22-2.37.74-3.28 2.92-6 7.05-6 1.25 0 3.47.77 4.28.91v-9.98c-.81-.14-1.33-.14-2.36-.14-3.47-.02-7.27 2.08-9.12 7.03zM120.44 16.72c-11.32 0-18.82 6.96-18.82 17.84 0 10.88 7.93 17.36 18.24 17.36 9.45 0 18.6-5.65 18.6-17.98.01-10.12-7.2-17.22-18.02-17.22zm-.29 27.69c-4.69 0-7.84-4.34-7.84-10.12 0-4.96 2.57-10.12 7.84-10.12 4.98 0 7.62 5.1 7.62 10.12 0 6.06-3.36 10.12-7.62 10.12zM158.34 16.72c-11.32 0-18.82 6.96-18.82 17.84 0 10.88 7.93 17.36 18.24 17.36 9.45 0 18.6-5.65 18.6-17.98 0-10.12-7.21-17.22-18.02-17.22zm-.29 27.69c-4.69 0-7.84-4.34-7.84-10.12 0-4.96 2.57-10.12 7.84-10.12 4.98 0 7.62 5.1 7.62 10.12 0 6.06-3.37 10.12-7.62 10.12z"/><path class="st0" d="M184.89 3.37c-3.18 2.75-3.91 7.23-3.91 11.29v2.81h-5.43v7.71h5.43v25.97h11.04V25.19h7v-7.71h-7.76v-3.22c0-3.31 1.52-5.99 5.12-5.99 1.44 0 2.6.21 3.54.48l.43-8.06c-1.51-.41-3.39-.69-5.84-.69-3.18 0-6.88.9-9.62 3.37zM221.92 16.72c-3.24 0-7.37 2.07-9.09 6.96h-.28l-.34-6.2h-9.02c.14 2.89.28 6.13.28 11.09v22.59h10.47V34.08c0-.83.07-1.65.21-2.34.69-3.24 3.31-5.3 7.16-5.3 1.17 0 2.07.14 2.82.28v-9.85c-.77-.15-1.25-.15-2.21-.15zM51.42.14h-38.5C5.72.14-.13 5.98-.13 13.19v37.77c0 7.2 5.84 13.05 13.05 13.05h38.5c7.2 0 13.05-5.84 13.05-13.05V13.19C64.47 5.98 58.63.14 51.42.14zM39.28 44.41l-7.19-7.18-7.19 7.18H7.22l24.87-24.85 6.75 6.74V24h-1.02v-2.1h9.93v2.11h-1.02v10.18l10.23 10.22H39.28z"/></svg>