<svg version="1.1" id="Layer_1" xmlns="http://www.w3.org/2000/svg" x="0" y="0" viewBox="0 0 224 64" xml:space="preserve"><style>.st0{fill:#229ad8}.st2{fill:#fff}</style><path class="st0" d="M78.57 28.26c0-5.03-.15-8.31-.3-11.24h10.29l.37 6.28h.3c1.85-4.96 5.65-7.05 9.12-7.05 1.03 0 1.55 0 2.36.14v9.98c-.81-.14-3.02-.91-4.28-.91-4.13 0-6.31 2.72-7.05 6-.15.7-.22 1.54-.22 2.37v17.31H78.57V28.26zM138.47 33.94c0 12.33-9.16 17.98-18.6 17.98-10.31 0-18.24-6.47-18.24-17.36 0-10.88 7.5-17.84 18.82-17.84 10.81 0 18.02 7.1 18.02 17.22zm-26.16.35c0 5.79 3.15 10.12 7.84 10.12 4.25 0 7.62-4.06 7.62-10.12 0-5.03-2.65-10.12-7.62-10.12-5.26-.01-7.84 5.16-7.84 10.12zM176.36 33.94c0 12.33-9.16 17.98-18.6 17.98-10.31 0-18.24-6.47-18.24-17.36 0-10.88 7.5-17.84 18.82-17.84 10.81 0 18.02 7.1 18.02 17.22zm-26.15.35c0 5.79 3.15 10.12 7.84 10.12 4.25 0 7.62-4.06 7.62-10.12 0-5.03-2.65-10.12-7.62-10.12-5.27-.01-7.84 5.16-7.84 10.12z"/><path class="st0" d="M180.98 51.16V25.19h-5.43v-7.71h5.43v-2.81c0-4.06.74-8.54 3.91-11.29C187.63.9 191.33 0 194.51 0c2.45 0 4.33.28 5.85.69l-.43 8.06c-.94-.28-2.09-.48-3.54-.48-3.61 0-5.12 2.69-5.12 5.99v3.22h7.76v7.71h-7v25.96h-11.05z"/><path d="M203.46 28.57c0-4.96-.14-8.2-.28-11.09h9.02l.34 6.2h.28c1.72-4.89 5.85-6.96 9.09-6.96.96 0 1.45 0 2.2.14v9.85c-.76-.14-1.65-.28-2.82-.28-3.86 0-6.47 2.07-7.16 5.3-.14.69-.21 1.52-.21 2.34v17.08h-10.47V28.57z" fill="#676767"/><path class="st0" d="M51.42 64h-38.5C5.72 64-.13 58.16-.13 50.95V13.19C-.13 5.99 5.71.14 12.92.14h38.5c7.2 0 13.05 5.84 13.05 13.05v37.77c0 7.2-5.84 13.04-13.05 13.04z"/><path class="st2" d="M32.08 19.56L7.22 44.41H24.9l7.19-7.18 7.19 7.18h17.68zM37.81 21.9h9.93v2.11h-9.93z"/><path class="st2" d="M38.83 23.53h7.89v12.92h-7.89z"/></svg>